<svg xmlns="http://www.w3.org/2000/svg" width="18.389" height="20.5" viewBox="0 0 18.389 20.5">
  <g id="android" transform="translate(-4338.25 -13038.25)">
    <path id="Line_41" data-name="Line 41" d="M0,7.083a.75.75,0,0,1-.75-.75V0A.75.75,0,0,1,0-.75.75.75,0,0,1,.75,0V6.333A.75.75,0,0,1,0,7.083Z" transform="translate(4339 13046.389)" fill="#fff"/>
    <path id="Line_42" data-name="Line 42" d="M0,7.083a.75.75,0,0,1-.75-.75V0A.75.75,0,0,1,0-.75.75.75,0,0,1,.75,0V6.333A.75.75,0,0,1,0,7.083Z" transform="translate(4355.889 13046.389)" fill="#fff"/>
    <path id="Path_1975" data-name="Path 1975" d="M16.5,19.528H8.056A1.808,1.808,0,0,1,6.25,17.722V9.278a6.028,6.028,0,1,1,12.056,0v8.444A1.808,1.808,0,0,1,16.5,19.528Zm-8.75-9.5v7.694a.306.306,0,0,0,.306.306H16.5a.306.306,0,0,0,.306-.306V10.028Zm.062-1.5h8.931a4.528,4.528,0,0,0-8.931,0Z" transform="translate(4335.167 13036.056)" fill="#fff"/>
    <path id="Line_43" data-name="Line 43" d="M1.056,2.861a.75.75,0,0,1-.671-.415L-.671.335A.75.75,0,0,1-.335-.671.75.75,0,0,1,.671-.335L1.726,1.776a.75.75,0,0,1-.67,1.086Z" transform="translate(4343.222 13039)" fill="#fff"/>
    <path id="Line_44" data-name="Line 44" d="M0,2.861a.747.747,0,0,1-.335-.079A.75.75,0,0,1-.671,1.776L.385-.335A.75.75,0,0,1,1.391-.671.75.75,0,0,1,1.726.335L.671,2.447A.75.75,0,0,1,0,2.861Z" transform="translate(4350.611 13039)" fill="#fff"/>
    <path id="Line_45" data-name="Line 45" d="M0,3.917a.75.75,0,0,1-.75-.75V0A.75.75,0,0,1,0-.75.75.75,0,0,1,.75,0V3.167A.75.75,0,0,1,0,3.917Z" transform="translate(4344.278 13054.833)" fill="#fff"/>
    <path id="Line_46" data-name="Line 46" d="M0,3.917a.75.75,0,0,1-.75-.75V0A.75.75,0,0,1,0-.75.75.75,0,0,1,.75,0V3.167A.75.75,0,0,1,0,3.917Z" transform="translate(4350.611 13054.833)" fill="#fff"/>
  </g>
</svg>
