<svg xmlns="http://www.w3.org/2000/svg" width="16.5" height="19.5" viewBox="0 0 16.5 19.5">
  <g id="Group_16951" data-name="Group 16951" transform="translate(14186.75 -2169.25)">
    <path id="Path_2023" data-name="Path 2023" d="M15,3V7a1,1,0,0,0,1,1h4" transform="translate(-14191 2167)" fill="none" stroke="#fff" stroke-linecap="round" stroke-linejoin="round" stroke-width="1.5"/>
    <path id="Path_2024" data-name="Path 2024" d="M18,17H11a2,2,0,0,1-2-2V5a2,2,0,0,1,2-2h4l5,5v7A2,2,0,0,1,18,17Z" transform="translate(-14191 2167)" fill="none" stroke="#fff" stroke-linecap="round" stroke-linejoin="round" stroke-width="1.5"/>
    <path id="Path_2025" data-name="Path 2025" d="M16,17v2a2,2,0,0,1-2,2H7a2,2,0,0,1-2-2V9A2,2,0,0,1,7,7H9" transform="translate(-14191 2167)" fill="none" stroke="#fff" stroke-linecap="round" stroke-linejoin="round" stroke-width="1.5"/>
  </g>
</svg>
