<svg xmlns="http://www.w3.org/2000/svg" width="16.277" height="20.5" viewBox="0 0 16.277 20.5">
  <g id="apple" transform="translate(-4289.25 -12971.25)">
    <path id="Path_1972" data-name="Path 1972" d="M15.868,6.242c.091,0,.182,0,.27.01A6.265,6.265,0,0,1,20.4,8.687a.75.75,0,0,1-.258,1.082A1.127,1.127,0,0,1,20,9.833c-.792.31-2.119,1.039-2.106,2.439a2.413,2.413,0,0,0,2.024,2.435.8.8,0,0,1,.117.032.75.75,0,0,1,.5.706,6.745,6.745,0,0,1-1.685,3.9,4.9,4.9,0,0,1-3.287,2.124,5.663,5.663,0,0,1-1.925-.312,3.577,3.577,0,0,0-1.242-.216,5.662,5.662,0,0,0-1.61.255,6.6,6.6,0,0,1-1.525.273H9.222c-1.277,0-2.547-1.131-3.574-3.185a13.166,13.166,0,0,1-1.4-5.481A8.568,8.568,0,0,1,5.277,8.533,4.381,4.381,0,0,1,9.222,6.25a5.476,5.476,0,0,1,2.271.7,4.036,4.036,0,0,0,.9.36,4.4,4.4,0,0,0,.815-.318A6.514,6.514,0,0,1,15.868,6.242Zm2.681,2.624a5.109,5.109,0,0,0-2.516-1.117h-.007c-.051,0-.1-.006-.158-.006a5.279,5.279,0,0,0-2.046.613,3.758,3.758,0,0,1-1.433.451A3.8,3.8,0,0,1,10.845,8.3,4.365,4.365,0,0,0,9.222,7.75c-3.3,0-3.472,4.211-3.472,5.056a11.578,11.578,0,0,0,1.24,4.81C7.7,19.038,8.57,19.96,9.209,19.973a5.288,5.288,0,0,0,1.181-.222,7.086,7.086,0,0,1,2-.306,5.052,5.052,0,0,1,1.692.285,4.208,4.208,0,0,0,1.475.243,3.835,3.835,0,0,0,2.123-1.57,6.4,6.4,0,0,0,1.282-2.417,4.34,4.34,0,0,1-1.02-.548,3.772,3.772,0,0,1-1.551-3.151A3.89,3.89,0,0,1,18.549,8.866Z" transform="translate(4285 12970.277)" fill="#fff"/>
    <path id="Path_1973" data-name="Path 1973" d="M12,4.861a.75.75,0,0,1-.75-.75A2.864,2.864,0,0,1,14.111,1.25a.75.75,0,0,1,.75.75A2.864,2.864,0,0,1,12,4.861Z" transform="translate(4285.389 12970)" fill="#fff"/>
  </g>
</svg>
