<svg xmlns="http://www.w3.org/2000/svg" width="20.5" height="19.253" viewBox="0 0 20.5 19.253">
  <g id="Group_16942" data-name="Group 16942" transform="translate(-4283.25 -12805.84)">
    <path id="Path_1979" data-name="Path 1979" d="M18.624,18.053s.081-.058.211-.157A7.739,7.739,0,0,0,22,11.785c0-4.524-4.254-8.2-9.5-8.2S3,7.261,3,11.785s4.254,8.071,9.5,8.071q.671,0,2.2-.089a9.876,9.876,0,0,0,4.978,1.576.51.51,0,0,0,.437-.874,9.591,9.591,0,0,1-1.495-2.417Z" transform="translate(4281 12803)" fill="none" stroke="#fff" stroke-linecap="round" stroke-linejoin="round" stroke-width="1.5"/>
    <path id="Path_1980" data-name="Path 1980" d="M7.5,13.5a6.338,6.338,0,0,0,9,0" transform="translate(4281.5 12803.62)" fill="none" stroke="#fff" stroke-linecap="round" stroke-linejoin="round" stroke-width="1.5"/>
  </g>
</svg>
