<svg xmlns="http://www.w3.org/2000/svg" width="19.5" height="15.5" viewBox="0 0 19.5 15.5">
  <g id="podcast-white" transform="translate(19332.75 10626.75)">
    <path id="Rectangle_2122" data-name="Rectangle 2122" d="M4-.75H14A4.755,4.755,0,0,1,18.75,4v6A4.755,4.755,0,0,1,14,14.75H4A4.755,4.755,0,0,1-.75,10V4A4.755,4.755,0,0,1,4-.75Zm10,14A3.254,3.254,0,0,0,17.25,10V4A3.254,3.254,0,0,0,14,.75H4A3.254,3.254,0,0,0,.75,4v6A3.254,3.254,0,0,0,4,13.25Z" transform="translate(-19332 -10626)" fill="#fff"/>
    <path id="Path_2248" data-name="Path 2248" d="M10,8.25a.749.749,0,0,1,.386.107l5,3a.75.75,0,0,1,0,1.286l-5,3A.75.75,0,0,1,9.25,15V9A.75.75,0,0,1,10,8.25ZM13.542,12,10.75,10.325v3.351Z" transform="translate(-19335 -10631)" fill="#fff"/>
  </g>
</svg>
