<svg xmlns="http://www.w3.org/2000/svg" width="24" height="24" viewBox="0 0 24 24"><path d="M0,0H24V24H0Z" fill="none"/><path d="M17,20.75H7A1.752,1.752,0,0,1,5.25,19V11.75H3A.75.75,0,0,1,2.25,11V6a.75.75,0,0,1,.513-.712l6-2A.75.75,0,0,1,9.75,4a2.25,2.25,0,0,0,4.5,0,.75.75,0,0,1,.987-.712l6,2A.75.75,0,0,1,21.75,6v5a.75.75,0,0,1-.75.75H18.75V19A1.752,1.752,0,0,1,17,20.75ZM3.75,10.25H6a.75.75,0,0,1,.75.75v8a.25.25,0,0,0,.25.25H17a.25.25,0,0,0,.25-.25V11a.75.75,0,0,1,.75-.75h2.25V6.541L15.616,5A3.751,3.751,0,0,1,8.384,5L3.75,6.541Z" fill="#fff"/></svg>