<svg xmlns="http://www.w3.org/2000/svg" width="19.516" height="19.518" viewBox="0 0 19.516 19.518">
  <g id="white" transform="translate(19290.758 10671.759)">
    <path id="Path_2241" data-name="Path 2241" d="M10,10h4v4H10Z" transform="translate(-19293 -10674)" fill="none" stroke="#fff" stroke-linecap="round" stroke-linejoin="round" stroke-width="1.5"/>
    <line id="Line_127" data-name="Line 127" x1="3.5" y1="3.5" transform="translate(-19286.5 -10667.5)" fill="none" stroke="#fff" stroke-linecap="round" stroke-linejoin="round" stroke-width="1.5"/>
    <path id="Path_2242" data-name="Path 2242" d="M9.96,6A3.5,3.5,0,1,0,6,9.96" transform="translate(-19293 -10674)" fill="none" stroke="#fff" stroke-linecap="round" stroke-linejoin="round" stroke-width="1.5"/>
    <path id="Path_2243" data-name="Path 2243" d="M14,10l3.5-3.5" transform="translate(-19293 -10674)" fill="none" stroke="#fff" stroke-linecap="round" stroke-linejoin="round" stroke-width="1.5"/>
    <path id="Path_2244" data-name="Path 2244" d="M18,9.96A3.5,3.5,0,1,0,14.04,6" transform="translate(-19293 -10674)" fill="none" stroke="#fff" stroke-linecap="round" stroke-linejoin="round" stroke-width="1.5"/>
    <line id="Line_128" data-name="Line 128" x2="3.5" y2="3.5" transform="translate(-19279 -10660)" fill="none" stroke="#fff" stroke-linecap="round" stroke-linejoin="round" stroke-width="1.5"/>
    <path id="Path_2245" data-name="Path 2245" d="M14.04,18A3.5,3.5,0,1,0,18,14.04" transform="translate(-19293 -10674)" fill="none" stroke="#fff" stroke-linecap="round" stroke-linejoin="round" stroke-width="1.5"/>
    <line id="Line_129" data-name="Line 129" x1="3.5" y2="3.5" transform="translate(-19286.5 -10660)" fill="none" stroke="#fff" stroke-linecap="round" stroke-linejoin="round" stroke-width="1.5"/>
    <path id="Path_2246" data-name="Path 2246" d="M6,14.04A3.5,3.5,0,1,0,9.96,18" transform="translate(-19293 -10674)" fill="none" stroke="#fff" stroke-linecap="round" stroke-linejoin="round" stroke-width="1.5"/>
  </g>
</svg>
