<svg xmlns="http://www.w3.org/2000/svg" width="102.688" height="41.982" viewBox="0 0 102.688 41.982">
  <g id="Group_17059" data-name="Group 17059" transform="translate(0 0)">
    <g id="vuesax_bold_arrow-circle-right" data-name="vuesax/bold/arrow-circle-right">
      <g id="arrow-circle-right" transform="translate(0 0)">
        <path id="Vector" d="M17.493,0A17.493,17.493,0,1,1,0,17.493,17.522,17.522,0,0,1,17.493,0Zm-4.88,18.42,6.175,6.175a1.309,1.309,0,0,0,1.854,0,1.32,1.32,0,0,0,0-1.854l-5.248-5.248,5.248-5.248a1.311,1.311,0,1,0-1.854-1.854l-6.175,6.175A1.289,1.289,0,0,0,12.612,18.42Z" transform="translate(3.499 3.499)" fill="#5680e9"/>
        <path id="Vector-2" data-name="Vector" d="M0,41.982H41.982V0H0Z" fill="none" opacity="0"/>
      </g>
    </g>
    <path id="Path_2233" data-name="Path 2233" d="M10.6-7.986a3.991,3.991,0,0,1,1.584,1.452A3.97,3.97,0,0,1,12.76-4.4a4.125,4.125,0,0,1-1.342,3.146A4.624,4.624,0,0,1,8.14,0H1.54V-15.4H7.656a4.519,4.519,0,0,1,3.2,1.221,4,4,0,0,1,1.309,3.047A3.687,3.687,0,0,1,10.6-7.986ZM7.656-13.024H4.07v4.048H7.656a1.9,1.9,0,0,0,1.408-.583A1.977,1.977,0,0,0,9.636-11a1.977,1.977,0,0,0-.572-1.441A1.9,1.9,0,0,0,7.656-13.024ZM8.14-2.376A1.983,1.983,0,0,0,9.625-3a2.12,2.12,0,0,0,.6-1.529,2.12,2.12,0,0,0-.6-1.529A1.983,1.983,0,0,0,8.14-6.688H4.07v4.312ZM23.738-11h2.376V0H23.738V-1.584a4.451,4.451,0,0,1-3.85,1.87A5.159,5.159,0,0,1,16.016-1.4,5.722,5.722,0,0,1,14.41-5.5a5.712,5.712,0,0,1,1.606-4.114,5.175,5.175,0,0,1,3.872-1.672,4.469,4.469,0,0,1,3.85,1.848ZM17.776-2.981a3.352,3.352,0,0,0,2.486,1,3.352,3.352,0,0,0,2.486-1,3.436,3.436,0,0,0,.99-2.519,3.436,3.436,0,0,0-.99-2.519,3.352,3.352,0,0,0-2.486-1,3.352,3.352,0,0,0-2.486,1,3.436,3.436,0,0,0-.99,2.519A3.436,3.436,0,0,0,17.776-2.981ZM34.188.286a5.608,5.608,0,0,1-4.147-1.672A5.611,5.611,0,0,1,28.38-5.5a5.6,5.6,0,0,1,1.661-4.125,5.627,5.627,0,0,1,4.147-1.661,5.7,5.7,0,0,1,2.926.77,4.973,4.973,0,0,1,1.98,2.068L37.048-7.26A2.815,2.815,0,0,0,35.915-8.5a3.358,3.358,0,0,0-1.749-.451,3.282,3.282,0,0,0-2.431.99A3.364,3.364,0,0,0,30.756-5.5a3.364,3.364,0,0,0,.979,2.464,3.282,3.282,0,0,0,2.431.99,3.37,3.37,0,0,0,1.749-.462A3.016,3.016,0,0,0,37.092-3.74l2.046,1.166a5.232,5.232,0,0,1-2.024,2.09A5.7,5.7,0,0,1,34.188.286ZM50.688,0H47.85L43.34-5.082V0H40.964V-15.4H43.34v9.262L47.608-11h2.9l-4.84,5.39Z" transform="translate(52 28.491)" fill="#5680e9"/>
  </g>
</svg>
