<?xml version="1.0" encoding="utf-8"?>
<!-- Generator: Adobe Illustrator 24.3.0, SVG Export Plug-In . SVG Version: 6.00 Build 0)  -->
<svg version="1.1" id="Layer_1" xmlns="http://www.w3.org/2000/svg" xmlns:xlink="http://www.w3.org/1999/xlink" x="0px" y="0px"
	 viewBox="0 0 356 126.3" style="enable-background:new 0 0 356 126.3;" xml:space="preserve">
<style type="text/css">
	.st0{fill:url(#SVGID_1_);}
	.st1{fill:#FFFFFF;}
	.st2{fill:#231F20;}
</style>
<g>
	
		<linearGradient id="SVGID_1_" gradientUnits="userSpaceOnUse" x1="-121.2785" y1="481.039" x2="-120.3925" y2="480.058" gradientTransform="matrix(126.335 0 0 -126.335 14914.8652 60774.2227)">
		<stop  offset="0" style="stop-color:#B22DE2"/>
		<stop  offset="1" style="stop-color:#4000E8"/>
	</linearGradient>
	<path class="st0" d="M-374.9,0h46.3c22.1,0,40,17.9,40,40v46.3c0,22.1-17.9,40-40,40h-46.3c-22.1,0-40-17.9-40-40V40
		C-414.9,17.9-397,0-374.9,0z"/>
	<path class="st1" d="M-332.8,63.2l14.3-15.8c1.6-1.7,2.4-3.2,2.4-4.5s-0.9-2.8-2.8-4.4c-1.9-1.7-3.4-2.5-4.6-2.5
		c-1.2,0-2.7,1-4.4,2.9l-13.5,15.5l-6-6.9c-0.4-0.5-0.9-1-1.3-1.5c-0.4-0.4-0.7-0.8-1.1-1.2c-3.6-3.6-8.2-6-13.3-7
		c-1.6-0.3-3.3-0.5-4.9-0.5l-13.2-0.1c-3,0-4.9,0.6-5.6,1.9c-0.3,0.6-0.6,1.2-0.7,1.9c-0.1,0.8-0.1,1.7-0.1,2.5v39.6
		c-0.1,1.6,0.2,3.1,0.9,4.6c0.7,1.2,2.5,1.8,5.4,1.8h13c1.9,0,3.9-0.2,5.7-0.6c4.2-0.9,8.1-2.9,11.3-5.8c0.5-0.4,1-0.9,1.5-1.4
		c1.3-1.3,2.5-2.8,3.5-4.3l4.8-5.5l13.5,15.5c1.7,1.9,3.1,2.9,4.4,2.9s2.8-0.8,4.6-2.5c1.8-1.7,2.7-3.1,2.7-4.3
		c0-1.2-0.8-2.8-2.4-4.6L-332.8,63.2z M-359.5,71.6c-7.1,6.9-17.9,5.6-17.9,5.6c1.4-3.4,1.2-3.3,4.5-7.3c3.3-4,8.7-3.3,8.7-3.3
		c-1.3,1-2.4,2.4-3.1,3.9l11-6.7l-11-6.7c0.7,1.5,1.8,2.9,3.1,3.9c0,0-5.4,0.7-8.7-3.3s-3-3.9-4.5-7.3c0,0,10.8-1.3,17.9,5.6
		c7.1,6.9,7,6.7,7.5,7.8C-352.6,65-352.5,64.7-359.5,71.6L-359.5,71.6z"/>
</g>
<g>
	<g transform="translate(-524.841 5909.73)">
		<path class="st2" d="M543.4-5889.3l13.4,0.1c6.9,0,13.5,2.7,18.4,7.5c5.2,4.8,8.1,11.5,7.9,18.6c0.1,7.1-2.7,13.9-7.8,18.9
			c-4.9,5.1-11.7,8-18.8,7.9h-13.2c-2.9,0-4.8-0.6-5.5-1.8c-0.7-1.4-1-3-0.9-4.6v-40.2c0-0.8,0-1.7,0.1-2.5c0.1-0.7,0.4-1.3,0.7-1.9
			C538.4-5888.6,540.3-5889.3,543.4-5889.3z M566.1-5853c2.7-2.5,4.3-6,4.2-9.7c0.1-3.7-1.4-7.3-4.1-9.8c-2.5-2.5-6-4-9.6-3.9h-6.9
			v27.3h7C560.2-5849.1,563.6-5850.5,566.1-5853z"/>
		<path class="st2" d="M624.5-5859.8c0,3-0.7,5.2-2.2,6.6c-1.3,1.3-3,2.1-4.9,2.1h-17.1c0,1.3,0.8,2.5,2.4,3.4
			c1.4,0.9,3.1,1.3,4.8,1.4c2.2,0.1,4.4-0.2,6.6-0.9l0.8-0.3c0.9-0.5,1.9-0.7,2.9-0.8c1.5,0,2.9,1.1,4,3.3c0.6,1,0.9,2.2,0.9,3.3
			c0,4.3-5.1,6.4-15.4,6.4c-3.3,0.1-6.5-0.6-9.5-1.8c-2.5-1-4.8-2.7-6.5-4.9c-3-3.7-4.6-8.3-4.6-13.1c0-6.1,2-10.9,5.9-14.6
			c4-3.7,9.3-5.6,14.7-5.5c6.7,0,11.6,2.4,14.7,7.1C623.6-5865.6,624.5-5862.7,624.5-5859.8z M609.2-5857.7c1.8,0,2.7-0.8,2.7-2.3
			c0-1-0.4-2-1.3-2.7c-1.1-0.7-2.3-1.1-3.6-1c-1.7,0.1-3.4,0.7-4.7,1.9c-1.4,0.9-2.2,2.4-2.3,4.1L609.2-5857.7z"/>
		<path class="st2" d="M650.3-5874.3c4.6-0.1,9.1,2,12,5.5c3.2,3.7,4.9,8.5,4.8,13.5v12.7c0,0.8,0,1.7-0.1,2.5
			c-0.1,0.6-0.3,1.3-0.6,1.8c-0.7,1.3-2.6,2-5.6,2c-3.4,0-5.4-0.9-5.9-2.7c-0.3-1.2-0.5-2.4-0.4-3.7v-12.7c0.3-3.2-2.1-6-5.3-6.3
			c-0.3,0-0.7,0-1,0c-1.7-0.1-3.4,0.6-4.6,1.7c-1.2,1.2-1.8,2.9-1.8,4.6v12.8c0,0.8,0,1.7-0.1,2.5c-0.1,0.7-0.3,1.3-0.7,1.8
			c-0.6,1.3-2.5,2-5.6,2c-3,0-4.9-0.7-5.6-2c-0.3-0.6-0.5-1.2-0.6-1.9c-0.1-0.8-0.1-1.7-0.1-2.5v-25.6c0-0.8,0-1.6,0.1-2.4
			c0.1-0.7,0.3-1.3,0.7-1.8c0.7-1.2,2.5-1.8,5.6-1.8c2.9,0,4.7,0.6,5.4,1.7c0.5,0.9,0.8,1.9,0.7,3c0.4-0.5,0.8-1,1.3-1.4
			c0.6-0.6,1.3-1.1,2-1.5C646.5-5873.7,648.4-5874.3,650.3-5874.3z"/>
		<path class="st2" d="M694.3-5861.5l-4.7-0.3v10c-0.1,1,0.1,2,0.6,2.8c0.6,0.7,1.4,1,2.3,0.9c0.9,0,1.7,0,2.6,0.1
			c0.7,0.1,1.3,0.3,1.9,0.7c1.1,0.6,1.7,2.2,1.7,4.8c0,3-0.7,4.9-2,5.6c-0.6,0.3-1.2,0.5-1.9,0.6c-0.8,0.1-1.6,0.1-2.4,0.1
			c-5,0-8.8-1.1-11.4-3.4c-2.6-2.3-3.9-6.1-3.9-11.5v-10.7c-1,0.1-2,0.2-3,0.2c-1,0-2-0.4-2.6-1.2c-0.7-0.8-1-2.2-1-4.2
			c-0.1-1.4,0.1-2.9,0.4-4.3c0.1-0.7,0.5-1.4,1-1.9c0.8-0.6,1.8-1,2.9-0.9l2.4,0.3v-7.4c0-0.8,0-1.6,0.1-2.5
			c0.1-0.6,0.3-1.2,0.7-1.7c0.6-1.2,2.5-1.8,5.6-1.8c3.3,0,5.2,0.9,5.9,2.7c0.3,1.2,0.4,2.4,0.4,3.7v7.1c2.1-0.2,3.7-0.3,4.8-0.3
			c0.8,0,1.6,0,2.5,0.1c0.7,0.1,1.3,0.3,1.9,0.7c1.3,0.6,1.9,2.5,1.9,5.6c0,3-0.7,4.9-2,5.6c-0.6,0.3-1.2,0.5-1.9,0.6
			C696-5861.5,695.2-5861.5,694.3-5861.5z"/>
		<path class="st2" d="M737.3-5863l14.5,16c1.6,1.8,2.5,3.4,2.5,4.6c0,1.3-0.9,2.7-2.8,4.4c-1.9,1.7-3.4,2.5-4.7,2.5s-2.8-1-4.4-2.9
			l-13.7-15.7l-13.7,15.7c-1.7,1.9-3.2,2.9-4.4,2.9c-1.2,0-2.8-0.9-4.7-2.6c-1.9-1.7-2.9-3.2-2.9-4.4c0-1.2,0.8-2.7,2.5-4.6l14.5-16
			l-14.5-16c-1.7-1.8-2.5-3.3-2.5-4.6c0-1.3,0.9-2.7,2.8-4.4c1.9-1.7,3.5-2.6,4.7-2.6c1.3,0,2.8,1,4.4,2.9l13.7,15.7l13.7-15.7
			c1.7-1.9,3.2-2.9,4.4-2.9c1.2,0,2.8,0.8,4.7,2.5c1.9,1.7,2.8,3.2,2.8,4.5c0,1.3-0.8,2.8-2.5,4.6L737.3-5863z"/>
		<path class="st2" d="M768.7-5855.3c-0.1,1.8,0.6,3.6,2,4.8c1.2,1.1,2.7,1.7,4.3,1.7c1.5,0,3-0.5,4.3-1.3c0.9-0.7,2-1.2,3.2-1.3
			c1.4,0,3.2,1.3,5.3,3.8c1,1,1.5,2.4,1.7,3.8c0,1.8-1.3,3.5-4,5.1c-3,2-6.5,3-10.1,2.9c-4.7-0.1-9.3-1.8-12.9-4.8
			c-2.1-1.7-3.7-3.8-4.8-6.2c-1.3-2.7-1.9-5.6-1.9-8.5c0-2.9,0.6-5.8,1.9-8.5c1.1-2.4,2.8-4.5,4.8-6.1c3.6-3,8.1-4.7,12.8-4.8
			c1.8,0,3.6,0.3,5.3,0.8c1.3,0.3,2.6,0.8,3.8,1.5l1.2,0.7c0.9,0.6,1.5,1,2,1.4c1.1,0.7,1.8,2,1.9,3.3c-0.1,1.5-0.6,2.9-1.5,4.2
			c-1.7,2.6-3.4,4-5,4c-1.4-0.2-2.8-0.7-3.9-1.6c-1-0.9-2.4-1.3-3.7-1.2c-1.7,0-3.3,0.6-4.5,1.7
			C769.4-5858.9,768.6-5857.1,768.7-5855.3z"/>
		<path class="st2" d="M829.7-5859.8c0,3-0.7,5.2-2.2,6.6c-1.3,1.3-3,2.1-4.9,2.1h-17.1c0,1.3,0.8,2.5,2.4,3.4
			c1.4,0.9,3.1,1.3,4.8,1.4c2.2,0.1,4.4-0.2,6.6-0.9l0.8-0.3c0.9-0.5,1.9-0.7,2.9-0.8c1.5,0,2.9,1.1,4,3.3c0.6,1,0.9,2.2,0.9,3.3
			c0,4.3-5.1,6.4-15.4,6.4c-3.3,0.1-6.5-0.6-9.5-1.8c-2.5-1-4.8-2.7-6.5-4.9c-3-3.7-4.6-8.3-4.6-13.1c0-6.1,2-10.9,5.9-14.6
			c4-3.7,9.3-5.6,14.7-5.5c6.7,0,11.6,2.4,14.7,7.1C828.9-5865.6,829.7-5862.7,829.7-5859.8z M814.5-5857.7c1.8,0,2.7-0.8,2.7-2.3
			c0-1-0.4-2-1.3-2.7c-1.1-0.7-2.3-1.1-3.6-1c-1.7,0.1-3.4,0.7-4.7,1.9c-1.4,0.9-2.2,2.4-2.3,4.1L814.5-5857.7z"/>
		<path class="st2" d="M834.4-5885.9c0-0.8,0-1.7,0.1-2.5c0.1-0.7,0.3-1.3,0.6-1.9c0.7-1.3,2.6-2,5.6-2c2.9,0,4.8,0.7,5.5,2
			c0.3,0.6,0.6,1.3,0.7,2c0.1,0.8,0.1,1.7,0.1,2.5v33.4c-0.1,1.1,0,2.2,0.4,3.3c0.3,0.5,0.9,0.7,1.9,0.7c0.7,0,1.3,0,2,0.1
			c0.4,0.1,0.9,0.3,1.2,0.6c1,0.6,1.4,2.3,1.4,5.1c0,3-0.5,4.9-1.4,5.6c-1.3,0.9-4.2,1-9,0.4c-3.7-0.5-6.1-1.7-7.2-3.7
			c-1.3-2.4-2-6.1-2-11.3L834.4-5885.9z"/>
		<g transform="translate(0 68.347)">
			<path class="st2" d="M551.4-5873.7H548l-3.9-6.4l-3.9,6.4h-3.3l5.6-9.1l-5.2-8.6h3.3l3.6,5.9l3.6-5.9h3.3l-5.2,8.6L551.4-5873.7z
				"/>
			<path class="st2" d="M558.4-5873.4c-3.7,0-6.7-2.9-6.7-6.6s2.9-6.7,6.6-6.7c0.1,0,0.1,0,0.2,0c1.2,0,2.3,0.3,3.4,0.9
				c1,0.6,1.8,1.4,2.3,2.4l-2.4,1.4c-0.3-0.6-0.7-1.1-1.3-1.4c-0.6-0.4-1.3-0.5-2-0.5c-1.1,0-2.1,0.4-2.8,1.1
				c-1.5,1.6-1.5,4.1,0,5.7c0.7,0.8,1.7,1.2,2.8,1.1c0.7,0,1.4-0.2,2-0.5c0.6-0.3,1-0.8,1.4-1.4l2.4,1.3c-0.5,1-1.3,1.8-2.3,2.4
				C560.7-5873.7,559.6-5873.4,558.4-5873.4z"/>
			<path class="st2" d="M568-5878.9c0.2,0.9,0.7,1.7,1.4,2.2c0.8,0.5,1.7,0.8,2.7,0.8c1.3,0.1,2.5-0.5,3.3-1.6l2.3,1.3
				c-1.2,1.8-3.3,2.9-5.5,2.8c-1.9,0.1-3.7-0.6-5-1.9c-1.3-1.3-2-3-1.9-4.8c0-1.8,0.6-3.5,1.9-4.7c1.3-1.3,3-2,4.8-1.9
				c1.7-0.1,3.4,0.7,4.6,1.9c1.2,1.3,1.8,3,1.8,4.7c0,0.4,0,0.8-0.1,1.1L568-5878.9z M568-5881.1h7.4c-0.2-1.8-1.8-3.2-3.6-3.1
				c-0.9,0-1.8,0.3-2.5,0.8C568.6-5882.8,568.1-5882,568-5881.1L568-5881.1z"/>
			<path class="st2" d="M580.6-5873.7v-18.5h2.7v18.5H580.6z"/>
			<path class="st2" d="M595.4-5888.8c-0.7,0.7-1.8,0.7-2.5,0c-0.3-0.3-0.5-0.8-0.5-1.2c0-0.5,0.2-0.9,0.5-1.2
				c0.7-0.7,1.8-0.7,2.5,0c0,0,0,0,0,0c0.3,0.3,0.5,0.8,0.5,1.2C595.9-5889.6,595.8-5889.1,595.4-5888.8z M592.8-5873.7v-12.7h2.7
				v12.7H592.8z"/>
			<path class="st2" d="M605.4-5886.7c1.3-0.1,2.6,0.5,3.5,1.4c0.9,1,1.4,2.4,1.3,3.8v7.8h-2.7v-7.5c0.1-0.8-0.2-1.6-0.8-2.2
				c-0.6-0.5-1.3-0.8-2.1-0.8c-0.9,0-1.7,0.3-2.3,0.9c-0.6,0.8-1,1.8-0.9,2.7v6.8h-2.7v-12.7h2.7v1.6
				C602.3-5886.1,603.8-5886.8,605.4-5886.7z"/>
			<path class="st2" d="M633.3-5891.5l-6.2,10.7v7h-2.9v-7l-6.2-10.7h3.3l4.3,7.8l4.3-7.8H633.3z"/>
			<path class="st2" d="M638.5-5873.4c-1.8,0-3.5-0.7-4.7-1.9c-2.6-2.6-2.6-6.8,0-9.5c2.6-2.6,6.8-2.6,9.5,0
				c2.6,2.6,2.6,6.8,0.1,9.4C642-5874.1,640.3-5873.4,638.5-5873.4z M635.7-5877.2c1.6,1.5,4.1,1.5,5.6,0c1.5-1.6,1.5-4.1,0-5.7
				c-1.6-1.5-4.1-1.5-5.6,0C634.1-5881.3,634.1-5878.8,635.7-5877.2z"/>
			<path class="st2" d="M656.2-5886.4h2.7v12.7h-2.7v-1.6c-0.9,1.3-2.4,2.1-3.9,1.9c-1.3,0.1-2.6-0.5-3.5-1.4
				c-0.9-1-1.4-2.4-1.3-3.8v-7.8h2.7v7.5c-0.1,0.8,0.2,1.6,0.8,2.2c0.6,0.5,1.3,0.8,2.1,0.8c0.9,0,1.7-0.3,2.3-0.9
				c0.6-0.8,1-1.7,0.9-2.7L656.2-5886.4z"/>
			<path class="st2" d="M664.8-5884.3c0.7-1.5,2.2-2.5,3.9-2.4v3c-1-0.1-1.9,0.2-2.7,0.7c-0.8,0.7-1.3,1.7-1.2,2.8v6.4h-2.7v-12.7
				h2.7V-5884.3z"/>
			<path class="st2" d="M684.2-5891.5c2.3-0.1,4.5,0.9,6.1,2.6c3.2,3.6,3.2,9,0,12.6c-1.6,1.7-3.8,2.6-6.1,2.6h-7v-17.7H684.2z
				 M684.2-5876.5c1.5,0.1,3-0.6,4.1-1.7c2.1-2.5,2.1-6.2,0-8.7c-1-1.1-2.5-1.8-4.1-1.7h-4v12.2H684.2z"/>
			<path class="st2" d="M697.3-5878.9c0.2,0.9,0.7,1.7,1.4,2.2c0.8,0.5,1.7,0.8,2.7,0.8c1.3,0.1,2.5-0.5,3.3-1.6l2.3,1.3
				c-1.2,1.8-3.3,2.9-5.5,2.8c-1.9,0.1-3.7-0.6-5-1.9c-1.3-1.3-2-3-1.9-4.8c0-1.8,0.6-3.5,1.9-4.7c1.3-1.3,3-2,4.8-1.9
				c1.7-0.1,3.4,0.7,4.6,1.9c1.2,1.3,1.8,3,1.8,4.7c0,0.4,0,0.8-0.1,1.1L697.3-5878.9z M697.3-5881.1h7.4c-0.2-1.8-1.8-3.2-3.6-3.1
				c-0.9,0-1.8,0.3-2.5,0.8C697.9-5882.8,697.4-5882,697.3-5881.1L697.3-5881.1z"/>
			<path class="st2" d="M716.6-5886.7c1.3-0.1,2.6,0.5,3.5,1.4c0.9,1,1.4,2.4,1.3,3.8v7.8h-2.7v-7.5c0.1-0.8-0.2-1.6-0.8-2.2
				c-0.6-0.5-1.3-0.8-2.1-0.8c-0.9,0-1.7,0.3-2.3,0.9c-0.6,0.8-1,1.8-0.9,2.7v6.8h-2.7v-12.7h2.7v1.6
				C713.5-5886.1,715-5886.8,716.6-5886.7z"/>
			<path class="st2" d="M731.4-5883.8h-3.1v6.1c0,0.4,0.1,0.8,0.4,1.1c0.3,0.2,0.7,0.4,1,0.4c0.6,0,1.2,0,1.7,0v2.5
				c-2.1,0.3-3.6,0.1-4.5-0.5s-1.4-1.7-1.4-3.4v-6.1h-2.3v-2.6h2.3v-2.7l2.7-0.8v3.5h3.1L731.4-5883.8z"/>
			<path class="st2" d="M743.4-5886.4h2.7v12.7h-2.7v-1.8c-1,1.4-2.7,2.2-4.4,2.2c-1.7,0-3.3-0.7-4.5-1.9c-2.5-2.7-2.5-6.8,0-9.5
				c1.1-1.2,2.8-1.9,4.5-1.9c1.7-0.1,3.4,0.7,4.4,2.1V-5886.4z M736.6-5877.2c1.6,1.5,4.1,1.5,5.7,0c1.5-1.6,1.5-4.2,0-5.8
				c-1.6-1.5-4.1-1.5-5.7,0C735-5881.3,735-5878.8,736.6-5877.2z"/>
			<path class="st2" d="M749.3-5873.7v-18.5h2.7v18.5H749.3z"/>
			<path class="st2" d="M766.6-5873.4c-2.8,0-4.7-1.1-5.7-3.2l2.5-1.5c0.6,1.2,1.9,2,3.2,1.9c0.8,0.1,1.7-0.2,2.3-0.7
				c0.6-0.6,0.9-1.3,0.8-2.1v-12.4h2.9v12.4c0.1,1.6-0.5,3.1-1.7,4.2C769.7-5873.9,768.1-5873.4,766.6-5873.4z"/>
			<path class="st2" d="M781.7-5873.4c-1.8,0-3.5-0.7-4.7-1.9c-2.6-2.6-2.6-6.8,0-9.5c2.6-2.6,6.8-2.6,9.5,0
				c2.6,2.6,2.6,6.8,0.1,9.4C785.2-5874.1,783.5-5873.4,781.7-5873.4L781.7-5873.4z M778.9-5877.2c1.6,1.5,4.1,1.5,5.6,0
				c1.5-1.6,1.5-4.1,0-5.7c-1.6-1.5-4.1-1.5-5.6,0C777.3-5881.3,777.3-5878.8,778.9-5877.2z"/>
			<path class="st2" d="M799.4-5886.4h2.7v12.7h-2.7v-1.6c-0.9,1.3-2.4,2.1-3.9,1.9c-1.3,0.1-2.6-0.5-3.5-1.4
				c-0.9-1-1.4-2.4-1.3-3.8v-7.8h2.7v7.5c-0.1,0.8,0.2,1.6,0.8,2.2c0.6,0.5,1.3,0.8,2.1,0.8c0.9,0,1.7-0.3,2.3-0.9
				c0.6-0.8,1-1.7,0.9-2.7L799.4-5886.4z"/>
			<path class="st2" d="M808-5884.3c0.7-1.5,2.2-2.5,3.9-2.4v3c-1-0.1-1.9,0.2-2.7,0.7c-0.8,0.7-1.3,1.7-1.2,2.8v6.4h-2.7v-12.7h2.7
				V-5884.3z"/>
			<path class="st2" d="M820.6-5886.7c1.3-0.1,2.6,0.5,3.5,1.4c0.9,1,1.4,2.4,1.3,3.8v7.8h-2.7v-7.5c0.1-0.8-0.2-1.6-0.8-2.2
				c-0.6-0.5-1.3-0.8-2.1-0.8c-0.9,0-1.7,0.3-2.3,0.9c-0.6,0.8-1,1.8-0.9,2.7v6.8h-2.7v-12.7h2.7v1.6
				C817.5-5886.1,819-5886.8,820.6-5886.7z"/>
			<path class="st2" d="M830.5-5878.9c0.2,0.9,0.7,1.7,1.4,2.2c0.8,0.5,1.7,0.8,2.7,0.8c1.3,0.1,2.5-0.5,3.3-1.6l2.3,1.3
				c-1.2,1.8-3.3,2.9-5.5,2.8c-1.9,0.1-3.7-0.6-5-1.9c-1.3-1.3-2-3-1.9-4.8c0-1.8,0.6-3.5,1.9-4.7c1.3-1.3,3-2,4.8-1.9
				c1.7-0.1,3.4,0.7,4.6,1.9c1.2,1.3,1.8,3,1.8,4.7c0,0.4,0,0.8-0.1,1.1L830.5-5878.9z M830.5-5881.1h7.4c-0.2-1.8-1.8-3.2-3.6-3.1
				c-0.9,0-1.8,0.3-2.5,0.8C831.1-5882.8,830.7-5882,830.5-5881.1L830.5-5881.1z"/>
			<path class="st2" d="M851.2-5886.4h2.9l-4.9,13.1c-1.2,3.3-3.3,4.8-6.2,4.7v-2.6c0.7,0.1,1.5-0.1,2.1-0.5c0.6-0.5,1-1.2,1.3-1.9
				l0.1-0.3l-5.4-12.4h3l3.8,9.2L851.2-5886.4z"/>
		</g>
	</g>
	<g transform="translate(-209.202 5909.151)">
		<path class="st2" d="M543.2-5892.2v1.4h-2.4v7.2h-1.4v-7.2h-2.4v-1.4H543.2z"/>
		<path class="st2" d="M553.1-5892.2v8.6h-1.4v-6.1l-2.6,4.3h-0.2l-2.6-4.3v6.1h-1.4v-8.6h1.5l2.6,4.3l2.6-4.3H553.1z"/>
	</g>
</g>
</svg>
