<svg xmlns="http://www.w3.org/2000/svg" xmlns:xlink="http://www.w3.org/1999/xlink" width="500" height="500" viewBox="0 0 500 500"><defs><linearGradient id="a" x1="0.064" y1="0.017" x2="0.95" y2="0.998" gradientUnits="objectBoundingBox"><stop offset="0" stop-color="#b22de2"/><stop offset="1" stop-color="#4000e8"/></linearGradient></defs><g transform="translate(-109.285 -464.122)"><rect width="500" height="500" rx="160" transform="translate(109.285 464.122)" fill="url(#a)"/><path d="M384.811,649.268l56.713-62.356q9.582-10.172,9.591-17.777,0-7.625-11.008-17.5t-18.192-9.884q-7.2,0-17.361,11.289L350.945,614.56l-23.776-27.283c-1.661-2.076-3.433-4.116-5.314-6.1-1.442-1.55-2.957-3.079-4.533-4.568Q293.9,554.364,264.861,548.9a104.105,104.105,0,0,0-19.486-1.785l-52.206-.281q-18.068,0-22.015,7.623a22.719,22.719,0,0,0-2.676,7.332,81.682,81.682,0,0,0-.428,9.884V728.559q0,12.133,3.4,18.057,4.233,7.055,21.442,7.049h51.63a108.637,108.637,0,0,0,22.749-2.32,97.632,97.632,0,0,0,44.886-22.871q3.007-2.639,5.877-5.559A112.072,112.072,0,0,0,332,705.712l18.949-21.745,53.609,61.514q9.879,11.288,17.361,11.289,7.459,0,18.338-9.873,10.85-9.879,10.862-17.214t-9.591-18.057Zm-106,33.405c-27.9,27.273-70.719,22.2-70.719,22.2,5.716-13.321,4.755-13.005,17.764-28.862s34.562-13.007,34.562-13.007c-7.918,5.4-12.359,15.575-12.359,15.575l43.428-26.66-43.428-26.677s4.441,10.19,12.359,15.577c0,0-21.557,2.85-34.562-13.007s-12.047-15.527-17.764-28.848c0,0,42.817-5.071,70.719,22.186,27.9,27.273,27.587,26.33,29.494,30.769C306.4,656.362,306.718,655.4,278.815,682.673Z" transform="translate(49.235 65.366)" fill="#fff"/></g></svg>