<?xml version="1.0" encoding="utf-8"?>
<!-- Generator: Adobe Illustrator 26.0.1, SVG Export Plug-In . SVG Version: 6.00 Build 0)  -->
<svg version="1.1" id="Layer_1" xmlns="http://www.w3.org/2000/svg" xmlns:xlink="http://www.w3.org/1999/xlink" x="0px" y="0px"
	 viewBox="0 0 100 100" style="enable-background:new 0 0 100 100;" xml:space="preserve">
<style type="text/css">
	.st0{fill:#FFFFFF;}
	.st1{fill:url(#SVGID_1_);}
	.st2{fill:url(#SVGID_00000049930628810786006520000015312547200130942104_);}
	.st3{fill:url(#SVGID_00000077301381322760905340000010516152610920236690_);}
	.st4{fill:url(#SVGID_00000119829026790321577140000011660705630124928395_);}
	.st5{fill:url(#SVGID_00000093167166382067054600000015184051799326115974_);}
	.st6{fill:url(#SVGID_00000151540440299121256010000004834896625778763439_);}
	.st7{fill:url(#SVGID_00000133495408091601763950000017922260471627745427_);}
	.st8{fill:url(#SVGID_00000106126276527814022980000011318136981074488208_);}
	.st9{fill:url(#SVGID_00000131342843877737575130000016210899444236050089_);}
	.st10{fill:url(#SVGID_00000080192936843341559490000014079179790257335988_);}
	.st11{fill:url(#SVGID_00000024716917811424662120000014622929060408883646_);}
	.st12{fill:url(#SVGID_00000148645955963122915890000013060844015938930071_);}
	.st13{fill:url(#SVGID_00000116941972079300932710000018117999811908396735_);}
	.st14{fill:url(#SVGID_00000134968138706609349060000015920913042473449397_);}
	.st15{fill:url(#SVGID_00000002383718890728014560000004224388403183772830_);}
	.st16{fill:url(#SVGID_00000063612967009544788260000012949118587672468667_);}
	.st17{fill:#B10655;}
	.st18{fill:url(#SVGID_00000147933678870438286150000014446933267339699336_);}
	.st19{fill:url(#SVGID_00000174601131170750168600000008961859941167104643_);}
	.st20{fill:url(#SVGID_00000127035525639080374850000010017449965997307805_);}
	.st21{fill:url(#SVGID_00000024703745476727134280000011377304981295770512_);}
	.st22{fill:#4086F4;}
	.st23{fill:#00DF76;}
</style>
<g>
	<circle class="st0" cx="50" cy="50" r="50"/>
	<g>
		<path class="st22" d="M71.7,77.3c-9,0-18.1,0-27.1,0c0.1-0.1,0.2-0.2,0.3-0.3c3.4-2.6,5.7-5.9,6.8-10c0.3-1.1,0.5-2.1,0.7-3.3
			c0.2,0,0.4,0,0.7,0c4.4,0,8.8,0,13.2,0c0.6,0,1.1-0.1,1.5-0.5c0.5-0.5,0.6-1.2,0.3-1.8c-0.3-0.7-0.9-1-1.7-1c-4.4,0-8.9,0-13.3,0
			c-0.2,0-0.4,0-0.7,0c-0.2-2.4-0.9-4.6-1.9-6.7c2.4,0,4.7,0,7.1,0c2.9,0,5.9,0,8.8,0c0.8,0,1.4-0.3,1.7-1c0.5-1.2-0.3-2.4-1.7-2.4
			c-5.8,0-11.6,0-17.4,0c-0.5,0-0.9-0.2-1.2-0.6c-3.3-3.6-7.3-5.7-12.1-6.1c-1.1-0.1-2.2,0-3.4,0c0-0.3,0-0.4,0-0.6c0-6,0-12,0-17.9
			c0-3.2,2.1-5.4,5.4-5.4c7.8,0,15.5,0,23.3,0c0.2,0,0.4,0,0.6,0c0,0.3,0,0.5,0,0.7c0,4,0,7.9,0,11.9c0,1.4,0.6,2,2,2c4,0,8,0,12,0
			c0.2,0,0.4,0,0.7,0c0,0.3,0,0.5,0,0.7c0,5.9,0,11.8,0,17.8c0,6.4,0,12.9,0,19.3c0,2.3-1.3,4.2-3.4,4.9
			C72.4,77.1,72.1,77.2,71.7,77.3z M54.1,43.5c4.1,0,8.2,0,12.3,0c0.8,0,1.4-0.3,1.7-1c0.5-1.2-0.4-2.3-1.7-2.3
			c-7.2,0-14.4,0-21.6,0c-1,0-1.9,0-2.9,0c-0.7,0-1.3,0.4-1.6,1.1c-0.5,1.1,0.4,2.3,1.7,2.3C46,43.6,50.1,43.5,54.1,43.5z"/>
		<path class="st23" d="M32.7,77.3c-1.3-0.3-2.6-0.4-3.9-0.9c-5.8-2.2-9.3-6.5-10-12.7c-0.9-8.2,4.7-15.4,12.9-16.6
			c8-1.3,15.9,4.5,17.1,12.5c1.3,8.5-4.3,16.3-12.9,17.6c-0.3,0-0.6,0.1-0.9,0.1C34.3,77.3,33.5,77.3,32.7,77.3z M31.6,64.6
			c-0.8-0.8-1.4-1.5-2.1-2.1c-0.8-0.8-1.8-0.8-2.5-0.1c-0.7,0.7-0.6,1.7,0.1,2.5c1,1,2.1,2.1,3.1,3.1c0.9,0.9,1.8,0.9,2.7,0
			c2.5-2.5,5.1-5.1,7.6-7.6c0.8-0.8,0.8-1.8,0.1-2.5c-0.7-0.7-1.7-0.7-2.5,0.1c-1.7,1.7-3.3,3.3-5,5C32.6,63.5,32.1,64,31.6,64.6z"
			/>
		<path class="st22" d="M74.9,30.9c-3.2,0-6.6,0-10,0c0-3.4,0-6.7,0-10C68.2,24.3,71.5,27.6,74.9,30.9z"/>
	</g>
</g>
</svg>
