<?xml version="1.0" encoding="utf-8"?>
<!-- Generator: Adobe Illustrator 25.0.0, SVG Export Plug-In . SVG Version: 6.00 Build 0)  -->
<svg version="1.1" id="Layer_1" xmlns="http://www.w3.org/2000/svg" xmlns:xlink="http://www.w3.org/1999/xlink" x="0px" y="0px"
	 viewBox="0 0 300 300" style="enable-background:new 0 0 300 300;" xml:space="preserve">
<style type="text/css">
	.st0{fill:#FCC900;}
	.st1{fill:#616195;}
	.st2{fill:#41416B;}
	.st3{fill:#7F7FC0;}
	.st4{fill:#FEE300;}
	.st5{fill:#7070AA;}
	.st6{fill:#FEE301;}
	.st7{fill:#FDE301;}
	.st8{fill:#515180;}
	.st9{fill:#FDE201;}
	.st10{fill:#FDE200;}
	.st11{fill:#9191DC;}
	.st12{fill:#68D21E;}
	.st13{fill:#8ADC50;}
	.st14{fill:#F9C70F;}
	.st15{fill:#FEE032;}
	.st16{fill:#63B319;}
	.st17{fill:#EAAE00;}
	.st18{fill:#85E04B;}
	.st19{fill:#6CCE25;}
	.st20{fill:#FEDB78;}
	.st21{fill:#FEE8A0;}
	.st22{fill:#FE8422;}
	.st23{fill:#F37414;}
	.st24{fill:#756C74;}
</style>
<g>
	<path class="st0" d="M30.23,80.84c1.04-5.6,1.59-11.3,3.11-16.82c7.62-27.69,23.95-48.59,48.86-62.83c0.4-0.23,0.76-0.55,1.13-0.82
		c1.36,0,2.73,0,4.09,0c0.58,0.59,1.16,1.19,1.74,1.78c0.05,0.2,0.1,0.47-0.03,0.54c-6.95,3.99-10.23,11.07-14.11,17.45
		c-8.14,13.4-12.89,28.1-14.69,43.67c-2.47,21.3,0.98,41.68,10.14,61.08c3.63,7.69,7.98,14.92,13.31,21.57
		c0.69,0.86,2.01,1.73,1.03,3.22c-0.97,0.35-1.94,0.12-2.88-0.09c-9.47-2.08-18.78-1.12-27.99,1.53c-0.84,0.24-1.66,0.6-2.56,0.41
		c-1.08-0.39-1.66-1.32-2.28-2.18c-10.83-14.86-17.36-31.37-19.27-49.72c-0.47-4.57-0.44-9.12-0.5-13.68
		C29.3,84.18,29.46,82.46,30.23,80.84z"/>
	<path class="st1" d="M236.6,271.62c-0.29,0.55-0.73,0.89-1.33,1.05c-2.01,0.38-4.04,0.44-6.09,0.44
		c-24.14-0.01-48.27-0.07-72.41,0.02c-7.72,0.03-13.39-2.84-16.34-10.21c-0.59-1.48-1.63-2.07-3.14-2.08
		c-1.07,0-2.14-0.02-3.21-0.02c-25.3,0-50.61,0-75.91,0c-1.56,0-3.12,0.05-4.64-0.37c-0.57-0.2-0.97-0.58-1.2-1.14
		c1.32-1.2,2.95-0.8,4.46-0.8c26.09-0.03,52.17-0.02,78.26-0.02c4.53,0,4.47,0.02,5.62-4.09c1.29-4.61,4.46-7.73,8.97-9.29
		c2.07-0.72,3.45-1.85,4.56-3.75c4.22-7.23,10.51-11.07,18.97-10.89c2.69,0.06,4.44-0.79,5.47-3.34c0.8-1.98,1.82-3.89,3.19-5.56
		c1.24-1.52,0.77-2.6-0.59-3.68c-2.79-2.2-5.82-3.94-9.31-4.69c-3.01-0.65-4.98-2.34-6.3-5.09c-4.34-9.05-11.3-15.21-20.78-18.52
		c-0.73-0.25-1.51-0.43-1.96-1.16c3.49-4.48,7.55-8.28,13.01-10.24c2.51-0.9,3.99-2.55,4.81-5.06c4.91-15.08,19.53-25.7,35.13-25.66
		c3.28,0.01,4.46-1.08,5.43-4.6c2.83-10.28,7.9-19.29,15.68-26.58c3.65-3.42,7.3-7.08,12.44-8.4c4.18,0.95,7.61,3.44,11.02,5.77
		c13.55,9.28,23.92,21.29,29.93,36.71c1.52,3.89,3.91,5.98,7.99,6.62c4.44,0.7,8.69,2.12,12.66,4.26c1.3,0.7,2.52,0.83,3.88,0.42
		c-0.36,11.81-2.25,23.38-5.55,34.72c-6.11,20.98-16.53,39.57-31.12,55.82c-0.39,0.43-0.83,0.8-1.25,1.21
		c-1.58-0.23-1.22-1.54-1.31-2.49c-0.89-9.59-5.56-15.52-14.68-18.15c-2.82-0.81-4.5-2.51-5.61-5.05
		c-2.83-6.41-7.57-11.01-13.65-14.32c-3.85-2.09-4.76-2.04-8.09,0.81c-6.46,5.53-10,12.65-10.69,21.05
		c-0.25,3.01-1.48,4.58-4.26,5.44c-8.03,2.47-12.68,8.02-14.18,16.21c-0.43,2.35-1.45,4.12-3.36,5.56
		c-1.88,1.42-3.35,3.24-4.19,5.51c-0.66,1.78-0.39,2.86,1.8,2.77c0.78-0.03,1.56,0,2.34,0c17.14,0,34.28-0.01,51.42,0.02
		C233.86,270.82,235.39,270.44,236.6,271.62z"/>
	<path class="st2" d="M294.83,161.7c-0.51,1.07-0.86,2.02-2.48,1.1c-4.85-2.75-10.09-4.43-15.61-5.36c-3.14-0.53-5.4-2.22-6.56-5.46
		c-4.51-12.54-12.3-22.86-22.19-31.62c-5.53-4.9-11.65-9-18.52-11.88c-2.18-0.49-4.26-1.26-6.36-2.02
		c-19.07-6.86-38.02-6.38-56.76,1.17c-13.63,5.49-24.55,14.51-33.38,26.16c-0.7,0.92-1.28,1.98-2.49,2.38
		c-3.71-0.89-6.45-3.48-9.36-5.66c-12.62-9.48-22.48-21.34-29.71-35.35C89.6,91.65,88,87.99,86.76,84.2
		c-0.36-1.1-0.86-2.26,0.54-3.08c2.87-0.78,5.86,0.02,8.74-0.67c1.64-0.31,3.3-0.24,4.95-0.24c20.45,0,40.9,0.01,61.35-0.01
		c8.97-0.01,16.87-5.65,19.6-13.93c2.8-8.51-0.14-17.17-7.65-22.7c-1.93-1.42-4.06-2.37-6.34-2.87c-2.81-0.62-4.64-2.15-5.81-4.77
		c-3.81-8.58-10.39-14.17-19.13-17.34c-13.58-4.85-30.08,1.55-37.13,14.43c-0.14,0.26-0.31,0.5-0.4,0.78
		c-1.48,4.4-4.16,6.47-9.16,6.07c-4.1-0.33-7.99,1.3-11.37,3.89c-1.02,0.78-1.96,2.32-3.71,1.36c-0.8-5.09-0.55-10.03,2.12-14.61
		c13.69-7.13,28.01-12.42,43.27-15.05c29.06-5.01,57.07-1.63,84,10.43c0.8,0.36,1.62,0.64,2.44,0.96c0.94,0.8,0.69,1.92,0.8,2.94
		c0.22,1.98,0.68,3.88,2.81,4.61c2.06,0.71,3.75,0.02,5.01-1.76c0.27-0.38,0.63-0.73,1.2-0.55c1.99,1.28,3.98,2.57,5.97,3.85
		c-0.44,0.74-1.26,0.84-1.95,1.16c-1.79,0.84-2.55,2.27-2.44,4.21c0.12,2.09,1.46,3.16,3.31,3.48c3.44,0.61,6.93,1.09,9.98-1.37
		c0.38-0.31,0.82-0.5,1.33-0.49c30.45,24,48.67,55.15,54.52,93.48C294.86,144.78,295.27,153.23,294.83,161.7z"/>
	<path class="st3" d="M142.93,188.02c6.33,2.11,12.16,5.06,16.79,10.02c2.8,3,5.13,6.32,6.79,10.09c0.95,2.15,2.38,3.61,4.87,4.1
		c4.47,0.89,8.34,3.05,11.68,6.19c1.06,0.99,1.25,1.67,0.1,2.8c-1.82,1.8-2.99,4.11-3.89,6.46c-1.04,2.73-2.58,3.91-5.67,3.65
		c-6.41-0.53-12.19,1.58-15.93,6.77c-3.11,4.31-6.48,7.61-11.39,9.8c-3.42,1.52-4.92,5.23-5.42,8.89c-0.3,2.21-1.22,2.55-3.19,2.55
		c-26.99-0.06-53.97-0.04-80.96-0.04c-1.46,0-2.92,0.01-4.38,0.02c-6.18-5.6-11.45-11.99-16.36-18.7
		c-4.16-17.75,6.12-35.8,23.75-40.5c4.56-1.22,7.25-3.21,9.25-7.59c7.38-16.21,20.33-25.65,37.59-29.41c1.05-0.23,2.1-0.48,3.18-0.2
		c1.55,0.54,2.54,1.75,3.54,2.94c4.28,5.08,7.91,10.55,10.4,16.76c1.4,3.5,2.6,3.96,6.29,3.65
		C134.38,185.92,138.85,185.63,142.93,188.02z"/>
	<path class="st2" d="M53.52,260.46c0.86-0.96,2.01-0.56,3.03-0.56c26.97-0.02,53.94,0.01,80.91-0.07c2.35-0.01,3.32,0.62,3.94,3.03
		c1.39,5.37,7.36,9.3,13.4,9.3c25.7,0.01,51.41,0,77.11,0.02c1.12,0,2.35-0.42,3.36,0.48c-17.23,12.59-36.39,20.84-57.36,24.53
		c-39.52,6.95-75.88-1.08-108.9-23.94C63.49,269.45,58.28,265.23,53.52,260.46z"/>
	<path class="st4" d="M83.36,30.51c-1.24,4.88-1.87,9.84-1.75,14.88c-1.39,4.2-3.1,7.97-7.84,9.62c-5.88,2.05-9.26,7.3-8.91,12.96
		c0.35,5.6,4.2,10.39,9.64,11.88c2.86,0.79,5.81,0.24,8.71,0.43c1.29,0.08,2.82-0.34,3.51,1.35c4.89,15.2,13.33,28.18,24.55,39.43
		c5.73,5.74,12.16,10.58,19.01,14.87c0.59,1.43-0.42,2.42-1.04,3.46c-2.43,4.12-4.54,8.37-6.31,12.82c-1.79,4.5-4.69,6.15-9.67,5.42
		c-3.5-0.51-6.97-0.5-10.47-0.18c-1.03,0.14-1.9-0.29-2.72-0.82c-3.92-2.57-8.21-4.3-12.63-5.76c-0.9-0.3-1.88-0.55-2.35-1.54
		c-12.95-15.88-21.4-33.77-24.68-54.1c-1.32-8.18-2.12-16.38-1.54-24.6c0.96-13.79,4.1-27.09,9.75-39.83
		c4.21-9.49,9.88-17.98,16.1-26.2c1.18-1.56,3.02-1.56,4.45-2.47c2.04,1.98,1.92,4.21,0.85,6.62c-2.78,6.27-4.93,12.75-6.37,19.46
		C83.48,28.98,83.45,29.75,83.36,30.51z"/>
	<path class="st5" d="M85.08,149.33c6.23,1.62,11.84,4.67,17.49,7.65c2.87,1.59,6.07,2.82,7.09,6.45
		c-10.02,1.21-18.77,5.29-26.55,11.62c-7.03,5.72-11.91,12.94-15.12,21.35c-0.72,1.9-2.05,2.94-4.07,3.32
		c-7.44,1.41-14.02,4.56-19.17,10.23c-6.2,6.83-9.31,14.85-8.9,24.17c0.09,2.16,0.58,4.32,0.11,6.49
		c-11.75-15.72-19.47-33.28-23.93-52.34c-0.06-0.27,0-0.58,0.01-0.87c4.34-0.88,5.88-4.18,7.61-7.84
		c6.05-12.75,15.69-22.03,28.52-27.95c0.97-0.45,1.96-0.91,3.08-0.51C62.36,147.25,73.63,146.54,85.08,149.33z"/>
	<path class="st5" d="M236.6,271.62c-19.47-0.01-38.95-0.08-58.42,0.04c-2.73,0.02-3.06-0.84-2.41-3.1c0.83-2.84,2.5-5.21,4.85-6.72
		c2.2-1.41,2.75-3.32,3.15-5.51c1.52-8.2,6.24-13.7,14.16-16.16c3-0.93,3.89-2.31,4.2-5.48c0.95-9.64,5.48-17.46,13.52-23.09
		c1.02-0.71,1.99-0.8,3.26-0.28c7.58,3.12,13.46,8.08,16.84,15.63c1.29,2.9,3.05,4.62,6.25,5.35c7.83,1.79,14.75,10.26,14.37,18.98
		c-0.03,0.76-0.18,1.58,0.54,2.16C250.87,260.33,244.09,266.37,236.6,271.62z"/>
	<path class="st2" d="M51.25,151.12C37.51,156.64,27.28,166,20.56,179.2c-0.62,1.21-1.15,2.47-1.59,3.75
		c-1.14,3.34-3.46,4.77-6.93,4.47c-3.63-15.64-4.43-31.42-2.49-47.36c0.73-0.82,1.78-0.63,2.7-0.87c2.73-0.71,4.17-2.26,4.41-4.75
		c0.23-2.46-0.92-4.39-3.29-5.63c-0.71-0.37-1.83-0.26-1.89-1.47c3.31-15.52,8.93-30.14,17.02-43.8c0.54-0.92,1.15-1.8,1.73-2.7
		c-0.57,13.16,0.52,26.12,4.55,38.76C38.44,131.08,44.19,141.43,51.25,151.12z"/>
	<path class="st6" d="M222.88,32.1c-1.24,2.54-3.16,4.04-6.06,3.27c-2.93-0.78-3.7-3.13-3.64-5.9c0.02-0.87-0.07-1.74-0.12-2.62
		c0.04-0.58,0.09-1.16,0.12-1.74c0.2-3.57,2.04-5.58,5.04-5.5c2.85,0.08,4.66,2.12,4.73,5.5C223,27.44,222.91,29.77,222.88,32.1z"/>
	<path class="st7" d="M239.07,42.93c-2.41,2.97-10.93,4.05-13.84,1.74c-1.62-1.29-2.08-3.04-1.61-4.96
		c0.65-2.69,2.72-3.57,5.23-3.76c1.55,0.03,3.09,0.08,4.64,0.1C238.08,36.12,239.91,38.37,239.07,42.93z"/>
	<path class="st4" d="M11.48,127.34c4.72,1.37,6.7,4,5.89,7.83c-0.71,3.39-3.19,4.94-7.82,4.89c-2.67-1.35-4.68-3.17-4.55-6.47
		c0.1-2.43,1.25-4.27,3.43-5.34C9.37,127.79,10.46,127.63,11.48,127.34z"/>
	<path class="st8" d="M109.66,163.43c-1.76-2.82-4.97-4.04-7.09-6.45c3.35-0.88,6.74-0.65,10.1-0.14c5.59,0.84,7.81-0.32,9.83-5.64
		c2.04-5.37,5.04-10.24,7.77-15.26c3.57-4.72,7.4-9.19,11.67-13.32c11.06-10.71,24.27-17.27,39.23-20.28
		c16.01-3.21,31.58-1.23,46.62,5.04c0.61,0.25,1.12,0.73,1.68,1.1c-6.39,2.55-11.28,7.08-15.68,12.15c-6,6.91-9.97,14.92-12.23,23.8
		c-0.7,2.76-2.69,3.84-5.44,3.83c-7.58-0.03-14.57,2.02-20.72,6.46c-6.35,4.57-11.32,10.34-13.72,17.92
		c-1.02,3.21-2.66,5.28-5.97,6.47c-4.03,1.45-7.64,3.8-10.07,7.55c-0.64,0.99-1.53,1.45-2.71,1.36c-4.85-0.88-9.66-1.66-14.65-0.74
		c-2.61,0.48-4.26-1.41-5.14-3.81c-2.3-6.26-5.93-11.72-10.18-16.78C111.96,165.51,110.76,164.51,109.66,163.43z"/>
	<path class="st5" d="M142.95,17.9c9.17,2.8,15.75,8.63,19.72,17.3c1.19,2.59,2.74,4,5.59,4.79c9.8,2.7,15.98,11.26,15.58,20.97
		c-0.39,9.49-7.93,18.1-17.57,19.93c-1.51,0.29-3.1,0.17-4.66,0.17c-21.81,0.01-43.62,0-65.42,0c-1.41-1.03-1.28-2.49-1.09-3.97
		c0.59-4.75,3.04-8.39,6.91-11.02c1.75-1.19,2.64-2.65,3.16-4.64c2.29-8.72,8.02-14.05,16.69-16.11c2.61-0.62,3.65-1.92,4.08-4.48
		c1.53-9.16,6.04-16.52,13.87-21.71C140.75,18.5,141.65,17.66,142.95,17.9z"/>
	<path class="st1" d="M142.95,17.9c-8.36,4.91-13.99,11.85-16.01,21.48c-0.16,0.75-0.31,1.52-0.36,2.29
		c-0.16,2.63-1.53,3.8-4.13,4.34c-8.54,1.76-14.2,6.79-16.45,15.34c-0.61,2.31-1.51,4.01-3.76,5.45c-4.61,2.95-7.72,8.88-6.07,14.27
		c-3.1,1.22-6.33,0.18-9.48,0.57c-2.76-0.81-5.58-0.25-8.38-0.4c-8.52-0.44-14.48-6.44-14.27-14.42c0.15-5.52,3.85-10.94,9.25-12.5
		c2.83-0.82,4.46-2.25,5.6-4.8c0.66-1.48,1.78-2.76,2.7-4.12c5.12-4.67,11.09-7.05,18.07-6.41c2.29,0.21,3.03-1.17,3.77-2.85
		c4.36-9.87,11.76-16.24,22.2-18.92C131.43,15.74,137.27,15.5,142.95,17.9z"/>
	<path class="st9" d="M222.89,54.24c0,1.26,0.14,2.54-0.03,3.77c-0.35,2.47-2.46,4.27-4.78,4.27c-2.43,0.01-4.59-1.9-4.82-4.55
		c-0.19-2.21-0.17-4.46-0.03-6.68c0.18-2.9,2.22-4.82,4.83-4.82c2.61,0,4.6,1.92,4.86,4.81c0.09,1.06,0.02,2.13,0.02,3.2
		C222.93,54.24,222.91,54.24,222.89,54.24z"/>
	<path class="st10" d="M204.82,45.86c-1.41-0.08-2.79-0.01-4.1-0.27c-2.49-0.49-3.87-2.12-3.97-4.66c-0.09-2.38,1.7-4.56,4.19-4.78
		c2.5-0.22,5.05-0.25,7.54,0c2.48,0.25,4,1.84,4.19,4.43c0.19,2.55-1.26,4.49-3.85,4.99C207.49,45.83,206.12,45.78,204.82,45.86z"/>
	<path class="st11" d="M249.88,87.52c-3.52,0-6.34-2.7-6.4-6.13c-0.07-3.68,2.98-6.8,6.55-6.69c3.34,0.1,6.28,3.09,6.29,6.39
		C256.34,84.66,253.48,87.52,249.88,87.52z"/>
</g>
</svg>
