<?xml version="1.0" encoding="utf-8"?>
<!-- Generator: Adobe Illustrator 25.0.0, SVG Export Plug-In . SVG Version: 6.00 Build 0)  -->
<svg version="1.1" id="Layer_1" xmlns="http://www.w3.org/2000/svg" xmlns:xlink="http://www.w3.org/1999/xlink" x="0px" y="0px"
	 viewBox="0 0 300 300" style="enable-background:new 0 0 300 300;" xml:space="preserve">
<style type="text/css">
	.st0{fill:#FCC900;}
	.st1{fill:#616195;}
	.st2{fill:#41416B;}
	.st3{fill:#7F7FC0;}
	.st4{fill:#FEE300;}
	.st5{fill:#7070AA;}
	.st6{fill:#FEE301;}
	.st7{fill:#FDE301;}
	.st8{fill:#515180;}
	.st9{fill:#FDE201;}
	.st10{fill:#FDE200;}
	.st11{fill:#9191DC;}
	.st12{fill:#68D21E;}
	.st13{fill:#8ADC50;}
	.st14{fill:#F9C70F;}
	.st15{fill:#FEE032;}
	.st16{fill:#63B319;}
	.st17{fill:#EAAE00;}
	.st18{fill:#85E04B;}
	.st19{fill:#6CCE25;}
	.st20{fill:#FEDB78;}
	.st21{fill:#FEE8A0;}
	.st22{fill:#FE8422;}
	.st23{fill:#F37414;}
	.st24{fill:#756C74;}
</style>
<g>
	<path class="st12" d="M5,248.46c1.43-2.7,1.21-5.77,1.88-8.65c5.2-22.36,17.78-39.8,35.57-53.82
		c11.59-9.13,24.57-15.65,38.47-20.41c0.96-1.34,2.48-1.65,3.92-2.07c15.9-4.66,32.15-6.55,48.67-5.85
		c5.34,0.23,10.75,0.41,15.97,1.89c0.31,0.14,0.56,0.34,0.77,0.6c0.74,1.41,0.52,2.95,0.52,4.44c0.02,20.01,0.01,40.01,0.01,60.26
		c0.93-0.43,1.23-1.22,1.68-1.83c10.35-14.08,24.28-22.95,40.82-27.98c5.25-1.59,10.56-2.91,16.1-2.91
		c1.82,0.01,3.65,0.23,5.46-0.22c1.03-0.27,2.08-0.29,3.12-0.09c3.73,1.17,7.63,0.52,11.43,1.09c26.94,4.04,48.39,16.11,60.68,41.48
		c3.53,7.29,5.09,15.13,4.91,23.27c-0.11,4.66-3.6,8.32-8.23,8.32c-45.49,0.02-90.97-0.01-136.46-0.03c-0.09,0-0.19-0.02-0.28-0.04
		c-1.1-1.18-0.81-2.65-0.82-4.04c-0.03-9.14-0.01-18.29-0.02-27.43c0-0.83,0.05-1.67-0.07-2.77c-3.73,7.63-5.77,15.39-6.24,23.57
		c-0.22,3.83,0.73,7.11,4.34,9.14c0.56,0.31,1.13,0.73,1.04,1.53c-4.05,0.03-8.11,0.08-12.16,0.08c-39.9,0.01-79.8-0.06-119.7,0.08
		c-5.26,0.02-9.13-1.43-11.39-6.31c0-1.7,0-3.4,0-5.1c0.46-1.13,0.46-2.27,0-3.4C5,250.35,5,249.41,5,248.46z"/>
	<path class="st13" d="M5,251.3c0.93,1.13,0.81,2.27,0,3.4C5,253.56,5,252.43,5,251.3z"/>
	<path class="st14" d="M150.01,79.2c19.79-0.13,36.59,7.08,50.4,21.06c15.08,15.28,21.65,33.93,20.24,55.26
		c-0.71,10.74-3.93,20.85-9.55,30.11c-1.29,0.34-2.13-0.52-3.03-1.17c-16.6-12.05-35.08-19.58-55.24-23.12
		c-1.03-0.18-2.03-0.43-2.86-1.11l0.04-0.21c-1.04-1.06-0.93-2.43-0.93-3.74c-0.02-24.45-0.02-48.9,0-73.35
		C149.09,81.64,148.96,80.27,150.01,79.2z"/>
	<path class="st15" d="M150.01,79.2c0,26.94,0,53.88,0,80.82c-5.89-0.53-11.77-1.31-17.67-1.53c-17.54-0.66-34.69,1.73-51.42,7.09
		c-7.63-34.58,10.75-67.43,40.79-80.55C130.73,81.1,140.14,79.02,150.01,79.2z"/>
	<path class="st16" d="M149.98,160.24c14.29,1.96,27.81,6.37,40.72,12.77c7.21,3.57,13.84,8.04,20.4,12.64
		c2.29,2.06,4.58,4.13,6.87,6.19c-0.8,0.93-1.89,0.41-2.84,0.56c-1.83,0.76-3.84-0.24-5.67,0.56c-9.16,0.26-17.74,2.91-26.03,6.54
		c-10.03,4.39-18.88,10.53-26.14,18.78c-2.45,2.79-4.59,5.85-7.32,9.37C149.98,204.76,149.98,182.5,149.98,160.24z"/>
	<path class="st14" d="M47.97,158.4c-1.88,0-3.77,0.06-5.65-0.01c-4.79-0.17-8.43-3.86-8.43-8.48c0-4.62,3.65-8.35,8.43-8.47
		c3.86-0.09,7.72-0.11,11.57,0.01c4.63,0.14,8.22,3.82,8.29,8.32c0.07,4.61-3.55,8.41-8.3,8.61
		C51.93,158.47,49.95,158.4,47.97,158.4z"/>
	<path class="st17" d="M251.97,141.42c1.88,0,3.77-0.05,5.65,0.01c4.81,0.16,8.45,3.81,8.48,8.44c0.02,4.62-3.62,8.39-8.39,8.51
		c-3.86,0.1-7.72,0.11-11.57,0c-4.76-0.14-8.38-3.95-8.33-8.57c0.05-4.5,3.63-8.17,8.25-8.37
		C248.01,141.35,249.99,141.43,251.97,141.42z"/>
	<path class="st17" d="M212.28,57.22c-0.1,0.46-0.14,1.55-0.58,2.45c-2.06,4.22-4.29,8.38-7.06,12.18
		c-2.54,3.49-7.28,4.16-10.89,1.95c-3.58-2.19-5.23-6.78-3.36-10.58c1.95-3.95,4.21-7.78,6.62-11.47c2.02-3.1,6.04-4.19,9.54-3.06
		C209.8,49.73,212.24,53.12,212.28,57.22z"/>
	<path class="st14" d="M101.62,75.06c-3-0.25-5.43-1.55-7-4.14c-2-3.29-3.96-6.61-5.78-10.01c-2.29-4.28-0.9-9.23,3.1-11.53
		c3.98-2.3,9.03-1.02,11.56,3.08c2.02,3.28,3.99,6.6,5.76,10.02C112.3,68.37,108.05,75.28,101.62,75.06z"/>
	<path class="st17" d="M251.59,95.98c0.03,3.18-1.31,5.69-3.97,7.34c-3.27,2.03-6.61,3.97-10.01,5.78
		c-4.44,2.35-9.39,0.89-11.68-3.29c-2.24-4.08-0.88-8.86,3.38-11.45c3.29-2,6.6-4.01,10.03-5.75
		C245.06,85.69,251.51,89.65,251.59,95.98z"/>
	<path class="st14" d="M56.92,87.63c1.34,0,2.62,0.33,3.78,0.98c3.52,1.99,7.1,3.89,10.49,6.08c3.98,2.57,5.04,7.54,2.71,11.41
		c-2.36,3.91-7.14,5.3-11.3,3.1c-3.49-1.85-6.91-3.83-10.26-5.9c-3.38-2.1-4.75-6.1-3.6-9.86C49.78,90.07,53.29,87.58,56.92,87.63z"
		/>
	<path class="st17" d="M150,33.9c4.84,0.01,8.4,3.39,8.47,8.15c0.06,3.94,0.06,7.88,0,11.81c-0.08,4.77-3.63,8.15-8.47,8.16
		c-0.98-0.97-0.9-2.24-0.9-3.45c-0.03-7.07-0.03-14.14,0-21.22C149.1,36.14,149.03,34.87,150,33.9z"/>
	<path class="st14" d="M150,33.9c0,9.37,0,18.75,0,28.12c-5.08-0.26-8.4-3.57-8.49-8.57c-0.07-3.66-0.07-7.32,0-10.98
		C141.6,37.46,144.93,34.15,150,33.9z"/>
	<path class="st18" d="M148.26,265.94c-7.37-3.69-6.44-8.41-5.82-14.43c0.64-6.13,2.29-11.94,4.73-17.56
		c0.66-1.51,1.26-3.05,2.84-5.1c0,12.93,0,25.01,0,37.09C149.43,265.94,148.84,265.94,148.26,265.94z"/>
	<path class="st19" d="M209.46,192.96c1.79-1.15,3.78-0.32,5.67-0.56C213.33,193.54,211.34,192.7,209.46,192.96z"/>
</g>
</svg>
