<svg xmlns="http://www.w3.org/2000/svg" width="145.435" height="24" viewBox="0 0 145.435 24">
  <g id="Group_17043" data-name="Group 17043" transform="translate(-203.262 -571.998)">
    <path id="Icon_awesome-star" data-name="Icon awesome-star" d="M12.634.834,9.573,7.039l-6.848,1A1.5,1.5,0,0,0,1.9,10.6L6.85,15.424,5.678,22.244a1.5,1.5,0,0,0,2.175,1.579l6.126-3.22,6.126,3.22a1.5,1.5,0,0,0,2.175-1.579l-1.172-6.819L26.062,10.6a1.5,1.5,0,0,0-.83-2.559l-6.848-1L15.324.834a1.5,1.5,0,0,0-2.69,0Z" transform="translate(201.82 571.999)" fill="#ff9200"/>
    <path id="Icon_awesome-star-2" data-name="Icon awesome-star" d="M12.634.834,9.573,7.039l-6.848,1A1.5,1.5,0,0,0,1.9,10.6L6.85,15.424,5.678,22.244a1.5,1.5,0,0,0,2.175,1.579l6.126-3.22,6.126,3.22a1.5,1.5,0,0,0,2.175-1.579l-1.172-6.819L26.062,10.6a1.5,1.5,0,0,0-.83-2.559l-6.848-1L15.324.834a1.5,1.5,0,0,0-2.69,0Z" transform="translate(231.91 571.999)" fill="#ff9200"/>
    <path id="Icon_awesome-star-3" data-name="Icon awesome-star" d="M12.634.834,9.573,7.039l-6.848,1A1.5,1.5,0,0,0,1.9,10.6L6.85,15.424,5.678,22.244a1.5,1.5,0,0,0,2.175,1.579l6.126-3.22,6.126,3.22a1.5,1.5,0,0,0,2.175-1.579l-1.172-6.819L26.062,10.6a1.5,1.5,0,0,0-.83-2.559l-6.848-1L15.324.834a1.5,1.5,0,0,0-2.69,0Z" transform="translate(262 571.999)" fill="#ff9200"/>
    <path id="Icon_awesome-star-4" data-name="Icon awesome-star" d="M12.634.834,9.573,7.039l-6.848,1A1.5,1.5,0,0,0,1.9,10.6L6.85,15.424,5.678,22.244a1.5,1.5,0,0,0,2.175,1.579l6.126-3.22,6.126,3.22a1.5,1.5,0,0,0,2.175-1.579l-1.172-6.819L26.062,10.6a1.5,1.5,0,0,0-.83-2.559l-6.848-1L15.324.834a1.5,1.5,0,0,0-2.69,0Z" transform="translate(292.09 571.999)" fill="#ff9200"/>
    <path id="Icon_awesome-star-5" data-name="Icon awesome-star" d="M12.634.834,9.573,7.039l-6.848,1A1.5,1.5,0,0,0,1.9,10.6L6.85,15.424,5.678,22.244a1.5,1.5,0,0,0,2.175,1.579l6.126-3.22,6.126,3.22a1.5,1.5,0,0,0,2.175-1.579l-1.172-6.819L26.062,10.6a1.5,1.5,0,0,0-.83-2.559l-6.848-1L15.324.834a1.5,1.5,0,0,0-2.69,0Z" transform="translate(322.18 571.999)" fill="#ff9200"/>
  </g>
</svg>
