<svg xmlns="http://www.w3.org/2000/svg" width="35" height="28" viewBox="0 0 35 28">
  <path id="Icon_awesome-truck" data-name="Icon awesome-truck" d="M34.125,19.25H33.25V13.338a2.625,2.625,0,0,0-.771-1.854L27.016,6.021a2.625,2.625,0,0,0-1.854-.771H22.75V2.625A2.626,2.626,0,0,0,20.125,0H2.625A2.626,2.626,0,0,0,0,2.625v17.5A2.626,2.626,0,0,0,2.625,22.75H3.5a5.25,5.25,0,0,0,10.5,0h7a5.25,5.25,0,1,0,10.5,0h2.625A.878.878,0,0,0,35,21.875v-1.75A.878.878,0,0,0,34.125,19.25ZM8.75,25.375a2.625,2.625,0,1,1,2.625-2.625A2.626,2.626,0,0,1,8.75,25.375Zm17.5,0a2.625,2.625,0,1,1,2.625-2.625A2.626,2.626,0,0,1,26.25,25.375ZM30.625,14H22.75V7.875h2.412l5.463,5.463Z" fill="#585858"/>
</svg>
