<svg xmlns="http://www.w3.org/2000/svg" width="24" height="24" viewBox="0 0 24 24"><path d="M0,0H24V24H0Z" fill="none"/><path d="M2-1.25H16a3.25,3.25,0,0,1,0,6.5H2a3.25,3.25,0,0,1,0-6.5Zm14,4a.75.75,0,0,0,0-1.5H2a.75.75,0,0,0,0,1.5Z" transform="translate(3 4)" fill="#585858"/><path d="M17,21.25H7A3.254,3.254,0,0,1,3.75,18V8a1.25,1.25,0,0,1,2.5,0V18a.751.751,0,0,0,.75.75H17a.751.751,0,0,0,.75-.75V8a1.25,1.25,0,0,1,2.5,0V18A3.254,3.254,0,0,1,17,21.25Z" fill="#585858"/><path d="M4,1.25H0A1.25,1.25,0,0,1-1.25,0,1.25,1.25,0,0,1,0-1.25H4A1.25,1.25,0,0,1,5.25,0,1.25,1.25,0,0,1,4,1.25Z" transform="translate(10 12)" fill="#585858"/></svg>