<svg xmlns="http://www.w3.org/2000/svg" width="80" height="80" viewBox="0 0 80 80">
  <g id="vuesax_bold_arrow-circle-right" data-name="vuesax/bold/arrow-circle-right" transform="translate(-492 -252)">
    <g id="arrow-circle-right" transform="translate(492 252)">
      <path id="Vector" d="M33.333,0A33.333,33.333,0,1,0,66.667,33.333,33.388,33.388,0,0,0,33.333,0Zm9.3,35.1L30.867,46.867a2.495,2.495,0,0,1-3.533,0,2.515,2.515,0,0,1,0-3.533l10-10-10-10A2.5,2.5,0,0,1,30.867,19.8L42.633,31.567A2.456,2.456,0,0,1,42.633,35.1Z" transform="translate(6.667 6.667)" fill="#fff"/>
      <path id="Vector-2" data-name="Vector" d="M0,0H80V80H0Z" transform="translate(80 80) rotate(180)" fill="none" opacity="0"/>
    </g>
  </g>
</svg>
