<svg xmlns="http://www.w3.org/2000/svg" width="24" height="24" viewBox="0 0 24 24">
  <path id="Icon_metro-instagram" data-name="Icon metro-instagram" d="M22.586,1.928H6.555A4,4,0,0,0,2.571,5.912V21.944a4,4,0,0,0,3.984,3.984H22.586a4,4,0,0,0,3.984-3.984V5.912a4,4,0,0,0-3.984-3.984Zm-12.333,10.5h8.634a4.57,4.57,0,1,1-8.634,0Zm13.317,0v9a1.5,1.5,0,0,1-1.5,1.5h-15a1.5,1.5,0,0,1-1.5-1.5v-9H7.917a6.82,6.82,0,1,0,13.307,0h2.346Zm0-5.251a.752.752,0,0,1-.75.75h-1.5a.752.752,0,0,1-.75-.75v-1.5a.752.752,0,0,1,.75-.75h1.5a.752.752,0,0,1,.75.75Z" transform="translate(-2.571 -1.928)"/>
</svg>
