<svg xmlns="http://www.w3.org/2000/svg" width="200" height="77.195" viewBox="0 0 200 77.195">
  <g id="Group_16646" data-name="Group 16646" transform="translate(562.686 -439.46)">
    <path id="Path_2005" data-name="Path 2005" d="M-265.773,470.232c-.842-.545-1.162.347-1.5.873a43.825,43.825,0,0,1-4.808,6.5c-.8.851-1.679,2.238-2.859,1.859-1.216-.392-.968-2.017-1.108-3.187-.162-1.355-.266-2.895-1.747-3.381-1.612-.531-2.62.77-3.539,1.855a24.728,24.728,0,0,0-1.67,2.4c-.473.72-.909,1.472-1.364,2.206,2.03-9.711,3.363-19.539,8.6-28.211a25.01,25.01,0,0,0,3.147-8.838c.14-.851.149-1.738-.833-2.084-.878-.311-1.432.387-1.81,1a29.415,29.415,0,0,0-2.143,3.93c-3.111,7.352-4.3,15.24-6.317,22.9-.189.711-.108,1.643-.77,2.03-3.633,2.121-6.911,4.768-10.643,7.348.383-2.845.747-5.286,1.013-7.739.077-.671.545-1.675-.437-1.967-.914-.27-1.139.761-1.553,1.342-1.481,2.08-2.688,4.376-4.907,6.546a15.133,15.133,0,0,1,2.62-8.532c.914-1.31,2.044-2.571,3.894-1.189a.765.765,0,0,0,1.184-.108c.365-.567-.023-.963-.441-1.328a3.618,3.618,0,0,0-4.727.293,13.5,13.5,0,0,0-2.985,4.691,25.789,25.789,0,0,1-8.689,10.094c-1.99,1.423-3.75.608-3.971-1.846-.234-2.62-.041-5.2,2.31-7.113a12.914,12.914,0,0,0,3.872-4.9c.383-.9.558-1.756-.387-2.4-.878-.594-1.594-.013-2.215.5a12.691,12.691,0,0,0-3.431,5.2c-.279.684-.5,1.571-1.036,1.94a114.806,114.806,0,0,0-9.554,7.334c.441-3.147.855-5.961,1.22-8.784.072-.536.441-1.274-.329-1.585-.9-.356-1.108.5-1.477,1.022-1.3,1.832-2.571,3.683-3.876,5.506-.3.423-.7.9-1.3.671-.545-.207-.594-.8-.666-1.324a18.379,18.379,0,0,1,.351-3.786c.068-.982,1.531-2.422.027-2.836-1.225-.342-1.265,1.562-1.544,2.539a19.473,19.473,0,0,1-4.984,8.4c-1.436,1.459-2.382,1.18-3.111-.738a28.336,28.336,0,0,1-1.018-5.286c-.117-.666.356-1.675-.7-1.877-.923-.18-1.162.8-1.6,1.351a42.438,42.438,0,0,1-4.615,5.493,14.023,14.023,0,0,1,2.872-7.888c.977-1.234,2.152-1.918,3.593-.527.36.347.783.8,1.328.221.621-.662.059-1.076-.342-1.5-1.517-1.6-3.66-1.612-5.313.293-3.647,4.187-8.694,6.564-12.786,10.161-.473.414-.869.725-1.463,0-3.066-3.75-7.5-5.331-11.737-7.19-2.94-1.292-5.979-2.368-8.892-3.719-3.125-1.45-3.822-3.651-2.454-6.834a16.4,16.4,0,0,1,3.147-4.619,53.091,53.091,0,0,1,18.585-12.71,19.089,19.089,0,0,1,6.5-1.684c1.868-.09,3.516.338,3.417,2.787-.023.531-.077,1.13.662,1.2.927.086.819-.68.873-1.238.239-2.512-1.31-4.214-4.043-4.286-4.754-.126-8.892,1.873-12.908,4.065-6.69,3.66-12.993,7.861-17.041,14.582-2.863,4.759-1.549,8.491,3.539,10.657,3.647,1.549,7.343,2.976,10.967,4.579a26.364,26.364,0,0,1,7.465,4.5c1.162,1.067,1.139,1.729-.162,2.719a126.171,126.171,0,0,0-12.1,10.409c-2.674,2.625-5.335,5.286-7.01,8.721-.581,1.184-1,2.5-.09,3.6.891,1.076,2.229,1.018,3.543.729a19.85,19.85,0,0,0,8.509-4.381c5.956-4.979,10.8-10.648,10.616-19.076-.009-.374-.027-.729.338-.995,3.061-2.274,6.114-4.552,9.5-7.073-.284,1.585-.5,2.6-.639,3.629a2.126,2.126,0,0,0,.855,2.382c.995.54,1.733-.189,2.332-.842,1.247-1.364,2.413-2.8,3.624-4.223a40.966,40.966,0,0,0,1.319,4.826c1.04,2.566,3.034,2.989,5.186,1.265a20.392,20.392,0,0,0,3.8-4.781c.882,1.342,1.675,2.845,3.642,1.693,1.414-.833,1.972-2.512,3.345-3.615-.036,5.06-.671,6.848-3.593,10.391a52.137,52.137,0,0,0-9.617,16.87,29,29,0,0,0-1.625,13.034c.189,1.418.531,2.913,2.143,3.4,1.7.518,2.62-.774,3.471-1.9a25.754,25.754,0,0,0,3.359-6.825c2.8-7.775,4.43-15.843,5.92-23.947.2-1.076.031-2.328.9-3.17a55.986,55.986,0,0,1,9.1-7.348c-.072,1.2-.167,2.166-.189,3.138-.045,2.021.2,3.957,2.287,4.975,2.021.986,3.575-.126,5.119-1.256a41.959,41.959,0,0,0,5.587-5.551c.225,1.126.221,2.287,1.387,2.544,1.081.23,1.792-.608,2.409-1.369.878-1.081,1.7-2.206,2.688-3.507-.18,5.988-.27,6.064-4.1,10.017-5.313,5.484-9.846,11.485-11.895,19.017-.837,3.079-1.247,6.213-.212,9.3,1,2.985,3.39,3.566,5.776,1.517a16.813,16.813,0,0,0,4.025-5.893,54.726,54.726,0,0,0,5.286-17.554c.707-7.028,3.912-11.769,10.013-14.871.2-.1.356-.279.554-.378.513-.248,1.008-.972,1.585-.527.522.4.131,1.126.009,1.693-.9,4.246-1.823,8.491-2.737,12.732-.153.716-.563,1.675.347,1.99,1.211.419,1.2-.86,1.454-1.526a55.016,55.016,0,0,1,4.966-10.531c.716-1.117,1.454-2.922,2.706-2.715s.824,2.143,1.044,3.345c.239,1.274.5,2.553,1.868,3.1,1.418.572,2.458-.306,3.413-1.139a35.377,35.377,0,0,0,6.2-7.942C-265.642,471.443-264.926,470.786-265.773,470.232ZM-276.9,447.118c.806-2.012,1.76-3.521,2.139-3.372s.022,1.9-.783,3.917-1.765,3.525-2.139,3.372S-277.712,449.13-276.9,447.118Zm-88.035,45.6a28.3,28.3,0,0,1-11.044,8.946c-1.333.59-3.129,1.738-4.146.563-1.09-1.252.527-2.71,1.333-3.872a54.634,54.634,0,0,1,8.932-9.45c2.958-2.611,6.01-5.115,9.018-7.667.176.1.351.207.522.315A20.632,20.632,0,0,1-364.937,492.716Zm33.163,10.882a37.615,37.615,0,0,1-4.151,9.869c-.446.675-.945,1.634-1.783,1.531-1.09-.131-1.049-1.355-1.166-2.175-.671-4.646.432-9.054,1.967-13.385a46.377,46.377,0,0,1,9.459-15.505A121.871,121.871,0,0,1-331.774,503.6Zm27.045,3.2a13.371,13.371,0,0,1-2.652,3.858c-1.841,1.738-3.161,1.351-3.777-1.135a12.727,12.727,0,0,1-.063-5.344c1.616-9.031,7.023-15.717,13.394-21.831C-299.251,490.771-300.881,499.1-304.73,506.8Z" transform="translate(-97.311 -0.004)" fill="#212121"/>
    <path id="Path_2006" data-name="Path 2006" d="M-480.735,444.714c-1.454-.527-1.877,1.184-2.391,2.17a38.51,38.51,0,0,0-2.818,7.555c-1.279,4.651-2.485,9.324-3.741,14.056-1.54-2.22-2.8-2.467-4.889-1.008a15.458,15.458,0,0,0-3.377,3.876,34.177,34.177,0,0,1-7.492,8.014c-2.265,1.621-4.074.729-4.34-2.035a8.52,8.52,0,0,1,.8-3.9c1.049-2.773,3.651-4.349,5-6.848.554-1.022,1.423-2.26.144-3.224-1.3-.981-2.238.23-3.012,1.081a17.576,17.576,0,0,0-3.858,8,11.415,11.415,0,0,1-3.147,5.34c-1.747,1.8-2.9,1.513-3.548-.95-.45-1.729-.6-3.539-.891-5.308-.081-.486.131-1.126-.518-1.36-.752-.27-1.044.365-1.4.824q-2.262,2.9-4.516,5.79a10.8,10.8,0,0,1,2.431-7.712c.986-1.243,2.184-1.873,3.6-.459.36.365.819.756,1.328.158.576-.684,0-1.085-.405-1.5-1.535-1.58-3.656-1.553-5.317.351-3.651,4.174-8.68,6.573-12.786,10.157-.387.338-.8.743-1.31.122-3.764-4.552-9.279-6.114-14.371-8.388-1.977-.882-4.029-1.6-6-2.5-3.606-1.639-4.376-3.876-2.643-7.442a17.01,17.01,0,0,1,2.976-4.2,52.292,52.292,0,0,1,20.7-13.461,16.4,16.4,0,0,1,4.39-.9c1.868-.126,3.512.356,3.386,2.8-.027.545-.031,1.126.689,1.175.923.063.8-.707.851-1.265.225-2.512-1.328-4.2-4.061-4.268-4.754-.113-8.892,1.882-12.9,4.079-6.69,3.66-12.993,7.861-17.032,14.587-2.859,4.759-1.54,8.478,3.552,10.643,3.647,1.553,7.343,2.976,10.963,4.583a24.864,24.864,0,0,1,7.622,4.664c.927.909,1.031,1.517-.153,2.413a129.216,129.216,0,0,0-12.111,10.4c-2.733,2.67-5.452,5.371-7.172,8.869-.581,1.184-1,2.5-.09,3.6.887,1.076,2.224,1.022,3.543.738a19.91,19.91,0,0,0,8.5-4.381c5.961-4.975,10.783-10.652,10.621-19.067,0-.374-.036-.734.329-1,3.066-2.274,6.123-4.556,9.5-7.073-.284,1.567-.5,2.584-.639,3.611a2.144,2.144,0,0,0,.842,2.386c.995.558,1.733-.167,2.332-.824,1.252-1.364,2.418-2.8,3.692-4.3.617,2.355.441,4.988,2.409,6.5,2.751,2.112,4.174-.86,6.024-2.094,1.274,4.385,3.98,5.263,7.469,2.427,1.6-1.3,3.057-2.778,4.727-4.313.113,1.837-.239,3.962,1.882,4.43,1.985.441,2.958-1.432,4.007-2.755.923-1.157,1.7-2.427,2.782-4-.693,4.128-1.36,7.8-1.918,11.49a71.751,71.751,0,0,0-1.288,12.052c.009.558.022,1.265.8,1.445a1.115,1.115,0,0,0,1.3-.63c.324-.576.9-1.229.068-1.738-.783-.486-.635-1.126-.531-1.765,1.774-11.35,2.4-22.93,7.685-33.519a56.467,56.467,0,0,0,4.25-12.975C-479.96,446.866-479.344,445.218-480.735,444.714Zm-58.726,44.117a28.655,28.655,0,0,1-13,12.593c-1.486.725-3.552,2.12-4.714.711-1.049-1.265.729-2.976,1.693-4.237,4.02-5.286,9.085-9.522,14.141-13.759,1.18-.986,2.418-1.909,3.962-3.12A15.842,15.842,0,0,1-539.461,488.831Zm48.106-17.257c-1.31,2.076-2.71,4.1-4.133,6.1-.365.5-.869,1.256-1.6.954s-.491-1.162-.563-1.931a11.675,11.675,0,0,1,3.453-7.433c.657-.644,1.661-1.616,2.463-.716A2.655,2.655,0,0,1-491.355,471.574Zm7.879-16.46c-1.319,4.12-2.683,7.361-3.044,7.244s.419-3.543,1.738-7.663,2.679-7.361,3.039-7.244S-482.157,451-483.477,455.114Z" transform="translate(0 0)" fill="#212121"/>
  </g>
</svg>
