<svg xmlns="http://www.w3.org/2000/svg" width="500" height="562.588" viewBox="0 0 500 562.588">
  <g id="subscribe" transform="translate(-456 -212)">
    <g id="Group_2" data-name="Group 2" transform="translate(469.153 317.027)">
      <path id="Path_1" data-name="Path 1" d="M77.917,184.914a47.3,47.3,0,1,1,60.812,27.852A47.3,47.3,0,0,1,77.917,184.914Z" transform="translate(-74.94 -121.125)" fill="#ebebeb"/>
      <path id="Path_2" data-name="Path 2" d="M141.783,165.4c-5.425,15.144-21.316,25.61-21.316,25.61s-17.876-6.52-26.634-20.006c-7.306-11.247-5.069-24.59,3.93-28.5,12.9-5.608,19.055,17.281,19.055,17.281s.709-23.69,14.569-21.211C141.045,140.307,146.3,152.774,141.783,165.4Z" transform="translate(-69.813 -115.029)" fill="#fff"/>
    </g>
    <g id="Group_4" data-name="Group 4" transform="translate(848.234 472.679)">
      <path id="Path_3" data-name="Path 3" d="M423.761,325.686a47.29,47.29,0,0,1-49.556-4.278,47.292,47.292,0,1,1,49.556,4.278Z" transform="translate(-355.129 -236.172)" fill="#ebebeb"/>
      <g id="Group_3" data-name="Group 3" transform="translate(19.076 27.522)">
        <path id="Path_4" data-name="Path 4" d="M408.522,272.139a14.391,14.391,0,1,1-13.106-15.571A14.39,14.39,0,0,1,408.522,272.139Z" transform="translate(-365.501 -256.514)" fill="#fff"/>
        <path id="Path_5" data-name="Path 5" d="M419.293,305.006l-.509,5.915a47.29,47.29,0,0,1-49.556-4.278l.506-5.895a24.87,24.87,0,0,1,49.558,4.258Z" transform="translate(-369.229 -248.929)" fill="#fff"/>
      </g>
    </g>
    <g id="Group_6" data-name="Group 6" transform="translate(733.185 212)">
      <circle id="Ellipse_31" data-name="Ellipse 31" cx="51.955" cy="51.955" r="51.955" transform="translate(0 47.471) rotate(-27.184)" fill="#ebebeb"/>
      <g id="xsrjP0" transform="translate(36.775 35.028)">
        <g id="Group_5" data-name="Group 5">
          <path id="Path_6" data-name="Path 6" d="M317.86,124.98c-1.373-.862-2.569-2.116-4.411-1.941-.706.07-.551-.514-.555-.9q-.014-10.387-.013-20.76c0-.5.03-.917.579-1.193,5.285-2.665,7.578-7.909,10.815-12.392a20.7,20.7,0,0,0,3.834-15.7c-.221-1.556.5-2.254,1.909-2.573,1.688-.386,3.37.083,3.949,1.242a27.929,27.929,0,0,1,3.018,9.07c.3,2.625-.636,5.18-.965,7.777-.241,1.9-.683,3.777-1.043,5.7.463.338,1,.162,1.5.17q8.769.012,17.54.005c2.464,0,3.669.708,4.012,2.343a4.686,4.686,0,0,1-2.546,5.068c-.437.221-1.226.022-1.28.706s.762.625,1.165.906c2.116,1.453,1.724,4.446-.725,6.178-.59.413-1.732.222-1.76,1.086-.014.689,1.055.681,1.54,1.166,1.707,1.687.859,4.839-1.694,6.113a8.078,8.078,0,0,0-1.027.4c-.291.2-.575.414-.012.813,2.531,1.809,2.477,4.327-.072,6.163-.25.18-.5.365-.762.547a4.926,4.926,0,0,1-3.079.674q-13.751.028-27.5.007A3.257,3.257,0,0,1,317.86,124.98Z" transform="translate(-291.766 -69.387)" fill="#fff" fill-rule="evenodd"/>
          <path id="Path_7" data-name="Path 7" d="M297.3,105.243c0-4.4.02-8.8-.015-13.191-.007-.894.085-1.334,1.181-1.32q8.047.1,16.085,0c1.053-.011,1.215.352,1.21,1.285q-.045,13.274.005,26.545c.007,1.126-.3,1.445-1.43,1.426-5.2-.06-10.4-.072-15.6.011-1.295.02-1.473-.434-1.46-1.567C297.341,114.038,297.3,109.643,297.3,105.243Z" transform="translate(-297.275 -61.854)" fill="#fff" fill-rule="evenodd"/>
        </g>
      </g>
    </g>
    <g id="Group_8" data-name="Group 8" transform="translate(464.53 428.879)">
      <path id="Path_8" data-name="Path 8" d="M205.853,297.644l-98.747,42.064L71.522,256.176,107.535,203.8l62.735,10.314Z" transform="translate(-71.522 -203.798)" fill="#5680e9"/>
      <path id="Path_9" data-name="Path 9" d="M205.853,297.644l-98.747,42.064L71.522,256.176,107.535,203.8l62.735,10.314Z" transform="translate(-71.522 -203.798)" opacity="0.2"/>
    </g>
    <g id="Group_21" data-name="Group 21" transform="translate(458.581 424.137)">
      <path id="Path_10" data-name="Path 10" d="M201.485,300.431l-87.609,37.32L67.126,228l65.05-27.71,31.688,11.819Z" transform="translate(-67.126 -200.294)" fill="#ebebeb"/>
      <path id="Path_11" data-name="Path 11" d="M115.206,200.294l31.688,11.819-22.559,9.61Z" transform="translate(-50.156 -200.294)" fill="#dbdbdb"/>
      <g id="Group_9" data-name="Group 9" transform="translate(16.585 22.19)">
        <rect id="Rectangle_6" data-name="Rectangle 6" width="52.945" height="3.139" transform="translate(49.94 2.888) rotate(156.927)" fill="#dbdbdb"/>
      </g>
      <g id="Group_10" data-name="Group 10" transform="translate(19.69 29.479)">
        <rect id="Rectangle_7" data-name="Rectangle 7" width="52.945" height="3.139" transform="translate(49.94 2.888) rotate(156.927)" fill="#dbdbdb"/>
      </g>
      <g id="Group_11" data-name="Group 11" transform="translate(22.795 36.768)">
        <rect id="Rectangle_8" data-name="Rectangle 8" width="52.945" height="3.139" transform="matrix(-0.92, 0.392, -0.392, -0.92, 49.94, 2.888)" fill="#dbdbdb"/>
      </g>
      <g id="Group_12" data-name="Group 12" transform="translate(25.9 34.405)">
        <rect id="Rectangle_9" data-name="Rectangle 9" width="77.574" height="3.139" transform="translate(72.599 2.888) rotate(156.927)" fill="#dbdbdb"/>
      </g>
      <g id="Group_13" data-name="Group 13" transform="translate(29.005 41.694)">
        <rect id="Rectangle_10" data-name="Rectangle 10" width="77.574" height="3.139" transform="translate(72.599 2.888) rotate(156.927)" fill="#dbdbdb"/>
      </g>
      <g id="Group_14" data-name="Group 14" transform="translate(32.11 48.983)">
        <rect id="Rectangle_11" data-name="Rectangle 11" width="77.574" height="3.139" transform="translate(72.599 2.888) rotate(156.927)" fill="#dbdbdb"/>
      </g>
      <g id="Group_15" data-name="Group 15" transform="translate(35.215 56.272)">
        <rect id="Rectangle_12" data-name="Rectangle 12" width="77.574" height="3.139" transform="translate(72.599 2.888) rotate(156.927)" fill="#dbdbdb"/>
      </g>
      <g id="Group_16" data-name="Group 16" transform="translate(38.32 63.561)">
        <rect id="Rectangle_13" data-name="Rectangle 13" width="77.574" height="3.139" transform="translate(72.599 2.888) rotate(156.927)" fill="#dbdbdb"/>
      </g>
      <g id="Group_17" data-name="Group 17" transform="translate(41.425 70.85)">
        <rect id="Rectangle_14" data-name="Rectangle 14" width="77.574" height="3.139" transform="translate(72.599 2.888) rotate(156.927)" fill="#dbdbdb"/>
      </g>
      <g id="Group_18" data-name="Group 18" transform="translate(44.531 78.14)">
        <rect id="Rectangle_15" data-name="Rectangle 15" width="77.574" height="3.139" transform="translate(72.599 2.888) rotate(156.927)" fill="#dbdbdb"/>
      </g>
      <g id="Group_19" data-name="Group 19" transform="translate(47.636 85.429)">
        <rect id="Rectangle_16" data-name="Rectangle 16" width="77.574" height="3.139" transform="translate(72.599 2.888) rotate(156.927)" fill="#dbdbdb"/>
      </g>
      <g id="Group_20" data-name="Group 20" transform="translate(50.741 92.718)">
        <rect id="Rectangle_17" data-name="Rectangle 17" width="77.574" height="3.139" transform="translate(72.599 2.888) rotate(156.927)" fill="#dbdbdb"/>
      </g>
    </g>
    <path id="Path_12" data-name="Path 12" d="M176.853,226.876,203.529,289.5l-98.747,42.064L78.106,268.94c5.264.6,10.506,1.342,15.75,2.016,5.251.724,10.5,1.449,15.739,2.231q8.739,1.27,17.515,2.665c.032-.049.078-.1.111-.153-.032.049-.042.105-.074.154q6.557,1.017,13.126,2.065c2.518-3.63,5.044-7.282,7.59-10.888-.057-.011-.106-.043-.162-.054a.749.749,0,0,0,.18.011q5.08-7.261,10.213-14.477,4.609-6.458,9.285-12.873C170.542,235.381,173.635,231.085,176.853,226.876Z" transform="translate(395.331 233.226)" fill="#5680e9"/>
    <g id="Group_22" data-name="Group 22" transform="translate(473.437 460.102)" opacity="0.2">
      <path id="Path_13" data-name="Path 13" d="M176.853,226.876c-2.8,4.5-5.715,8.917-8.559,13.387q-4.349,6.634-8.754,13.259-4.6,6.9-9.266,13.742c-.1.145-.176.284-.272.43q-4.128,6.042-8.285,12.1l-.418.58-.694-.107q-7.239-1.2-14.454-2.427c-.165-.018-.337-.05-.507-.081q-8.183-1.378-16.35-2.847c-5.194-.924-10.407-1.891-15.6-2.866-5.194-1.047-10.4-2-15.583-3.1,5.264.6,10.506,1.342,15.75,2.016,5.251.724,10.5,1.449,15.739,2.231q8.739,1.27,17.515,2.665c.015-.007.015-.007.037,0q6.557,1.017,13.126,2.065c2.518-3.63,5.044-7.282,7.59-10.888,0-.036,0-.036.018-.043q5.08-7.261,10.213-14.477,4.609-6.458,9.285-12.873C170.542,235.381,173.635,231.085,176.853,226.876Z" transform="translate(-78.106 -226.876)"/>
      <path id="Path_14" data-name="Path 14" d="M121.534,262.963c-.032.049-.042.105-.074.154-.329.666-.659,1.333-.994,1.983-1.586,3.146-3.269,6.228-5.022,9.27-2.12,3.741-4.359,7.41-6.619,11.071-2.295,3.622-4.609,7.237-7.035,10.794s-4.9,7.081-7.572,10.479c1.877-3.9,3.949-7.674,6.075-11.4,2.136-3.748,4.374-7.417,6.62-11.071,2.3-3.644,4.618-7.259,7.043-10.815,1.928-2.836,3.914-5.661,6-8.407.479-.643.965-1.27,1.465-1.9C121.456,263.067,121.5,263.012,121.534,262.963Z" transform="translate(-72.42 -214.139)"/>
      <path id="Path_15" data-name="Path 15" d="M180.021,267.128c-4.3-.428-8.572-1.078-12.8-1.8-4.247-.714-8.456-1.548-12.673-2.4-4.2-.905-8.4-1.833-12.569-2.9-3.393-.85-6.776-1.757-10.128-2.8-.724-.216-1.431-.441-2.14-.664-.057-.011-.105-.043-.162-.054a.749.749,0,0,0,.18.011c.81.093,1.6.177,2.395.277,3.428.4,6.826.929,10.222,1.5,4.246.714,8.456,1.549,12.664,2.42,4.2.905,8.4,1.833,12.57,2.9C171.75,264.658,175.906,265.779,180.021,267.128Z" transform="translate(-59.951 -216.415)"/>
    </g>
    <g id="Group_25" data-name="Group 25" transform="translate(786.643 360.704)">
      <g id="Group_24" data-name="Group 24" transform="translate(6.245 12.53)">
        <path id="Path_16" data-name="Path 16" d="M335.108,211.525l14.85-5.851-16.944-43-18.792,7.4Z" transform="translate(-314.222 -162.669)" fill="#5680e9"/>
        <path id="Path_17" data-name="Path 17" d="M314.224,170.074l7.962,15.814,12.927,25.641,14.85-5.851-16.946-43.009Z" transform="translate(-314.221 -162.669)" fill="#5680e9"/>
        <path id="Path_18" data-name="Path 18" d="M314.224,170.074l7.962,15.814,17.295-6.814-6.464-16.4Z" transform="translate(-314.221 -162.669)" opacity="0.1"/>
      </g>
      <rect id="Rectangle_18" data-name="Rectangle 18" width="25.13" height="19.09" transform="translate(30.379 17.761) rotate(158.495)" fill="#5680e9"/>
    </g>
    <g id="Group_28" data-name="Group 28" transform="translate(758.538 249.107)">
      <g id="Group_26" data-name="Group 26" transform="translate(0 86.407)">
        <path id="Path_19" data-name="Path 19" d="M298.727,168.871,317.6,163.53l-11.324-28.741-17.447,8.971Z" transform="translate(-288.832 -134.789)" fill="#5680e9"/>
      </g>
      <path id="Path_20" data-name="Path 20" d="M306.975,146.034l16.712,42.414,31.913-8.358,81.125-1.852L396.591,76.38l-60.58,54Z" transform="translate(-282.429 -68.997)" fill="#5680e9"/>
      <ellipse id="Ellipse_32" data-name="Ellipse 32" cx="17.683" cy="55.012" rx="17.683" ry="55.012" transform="translate(99.262 12.964) rotate(-21.505)" fill="#5680e9"/>
      <ellipse id="Ellipse_33" data-name="Ellipse 33" cx="14.477" cy="48.836" rx="14.477" ry="48.836" transform="translate(105.013 16.319) rotate(-21.506)" opacity="0.2"/>
      <path id="Path_21" data-name="Path 21" d="M382.325,120.25c1.316,3.342,2.709,6.552,4.152,9.6a10.919,10.919,0,0,0,13.458-14.421l-1.893-4.8a10.913,10.913,0,0,0-19.623-1.45C379.532,112.777,380.843,116.49,382.325,120.25Z" transform="translate(-257.213 -59.355)" fill="#5680e9"/>
      <g id="Group_27" data-name="Group 27" transform="translate(6.61 62.366)">
        <path id="Path_22" data-name="Path 22" d="M312.853,182.93l36.5-10.329-21.9-55.58-33.739,17.348Z" transform="translate(-293.718 -117.02)" fill="#5680e9"/>
        <path id="Path_23" data-name="Path 23" d="M312.853,182.93l36.5-10.329-21.9-55.58-33.739,17.348Z" transform="translate(-293.718 -117.02)" opacity="0.2"/>
      </g>
      <path id="Path_24" data-name="Path 24" d="M372.094,82.926c-1.391,3.9-1.491,8.122-1.406,12.228a78.009,78.009,0,0,0,1.51,12.285c.354,2.036.9,4.03,1.362,6.042.578,1.979,1.1,3.979,1.722,5.945.658,1.955,1.243,3.936,1.96,5.87s1.4,3.879,2.165,5.795a135.347,135.347,0,0,0,11.051,22.121,70.476,70.476,0,0,0,7.489,9.86c2.855,2.952,6.008,5.81,9.863,7.338a30.269,30.269,0,0,1-9.433-7.727,70.474,70.474,0,0,1-7.149-9.954A143.683,143.683,0,0,1,380.5,130.654a147.33,147.33,0,0,1-7.42-23.4,78.347,78.347,0,0,1-1.821-12.131A35.583,35.583,0,0,1,372.094,82.926Z" transform="translate(-259.95 -66.687)" opacity="0.2"/>
    </g>
    <g id="Group_29" data-name="Group 29" transform="translate(891.605 252.783)">
      <path id="Path_25" data-name="Path 25" d="M403.607,76.338c-1.552,1.839-3.006,3.745-4.446,5.662s-2.83,3.867-4.21,5.826c-1.358,1.973-2.714,3.948-4,5.969l-1.928,3.036c-.61,1.035-1.251,2.048-1.835,3.1.786-.913,1.513-1.866,2.272-2.8l2.177-2.863c1.449-1.909,2.829-3.868,4.208-5.827,1.357-1.974,2.714-3.948,4-5.971S402.423,78.432,403.607,76.338Z" transform="translate(-387.186 -72.689)" fill="#263238"/>
      <path id="Path_26" data-name="Path 26" d="M399.98,129.388c2.707.146,5.41.172,8.114.18s5.4-.043,8.105-.108c2.7-.091,5.4-.184,8.1-.36l4.045-.269c1.348-.13,2.7-.222,4.044-.384-1.354-.084-2.706-.1-4.059-.149l-4.055-.034c-2.7-.02-5.405.045-8.106.111-2.7.092-5.4.184-8.1.363S402.675,129.085,399.98,129.388Z" transform="translate(-382.67 -54.363)" fill="#263238"/>
      <path id="Path_27" data-name="Path 27" d="M446.872,114.932c-3.948.486-7.875,1.088-11.8,1.707s-7.838,1.3-11.748,1.992c-3.906.717-7.812,1.438-11.7,2.24l-5.835,1.207c-1.939.442-3.883.847-5.815,1.32,1.975-.231,3.94-.532,5.91-.8l5.889-.909c3.926-.609,7.836-1.3,11.748-1.994,3.906-.718,7.81-1.438,11.7-2.242S443,115.859,446.872,114.932Z" transform="translate(-382.673 -59.068)" fill="#263238"/>
      <path id="Path_28" data-name="Path 28" d="M424.038,73.641c-2.891,2.813-5.695,5.707-8.486,8.611s-5.536,5.853-8.272,8.809c-2.718,2.972-5.433,5.948-8.087,8.978l-3.979,4.55c-1.3,1.544-2.621,3.062-3.892,4.627,1.453-1.4,2.856-2.845,4.285-4.267l4.2-4.344c2.8-2.9,5.536-5.853,8.272-8.809,2.715-2.974,5.432-5.948,8.085-8.98S421.477,76.757,424.038,73.641Z" transform="translate(-385.726 -73.641)" fill="#263238"/>
      <path id="Path_29" data-name="Path 29" d="M396.56,115.81c4.394-1.542,8.743-3.194,13.084-4.864s8.649-3.424,12.976-5.133c4.293-1.789,8.6-3.534,12.881-5.364l6.406-2.765c2.121-.958,4.256-1.882,6.364-2.871-2.2.76-4.375,1.586-6.565,2.377l-6.521,2.485c-4.342,1.67-8.649,3.423-12.975,5.133-4.292,1.793-8.6,3.534-12.88,5.367S400.785,113.852,396.56,115.81Z" transform="translate(-383.878 -66.169)" fill="#263238"/>
    </g>
    <rect id="Rectangle_19" data-name="Rectangle 19" width="500" height="137.32" transform="translate(456 573.237)" fill="#5680e9"/>
    <g id="Group_31" data-name="Group 31" transform="translate(456 709.883)">
      <path id="Path_30" data-name="Path 30" d="M565.218,411.5h-500l5.412,6.664H559.806Z" transform="translate(-65.218 -411.496)" fill="#5680e9"/>
      <path id="Path_31" data-name="Path 31" d="M565.218,411.5h-500l5.412,6.664H559.806Z" transform="translate(-65.218 -411.496)" opacity="0.1"/>
    </g>
    <g id="Group_88" data-name="Group 88" transform="translate(520.443 212.417)">
      <g id="Group_39" data-name="Group 39" transform="translate(127.567 0)">
        <g id="Group_37" data-name="Group 37" transform="translate(0 18.252)">
          <path id="Path_45" data-name="Path 45" d="M356.505,193.293a1.329,1.329,0,0,1-1.105,1.364c-1.53.07-3.368.13-5.431.2-4.5-12.78-9.461-22.973-8.2-19.013a65.035,65.035,0,0,1,2.861,19.187c-2.393.07-7.94.18-10.718.234-3.593-22.383-8.541-39.043-8.346-33.937.786,20.586-.614,27.159-2.238,34.177-25.866.488-59.78.758-84.3.428-2.489-12.386-4.6-25.778-5.051-24.858-3.535,6.866-4.724,16.928-5.015,24.7-7.805-.16-14.041-.432-17.835-.787,0,0-1.536-10.4-1.7-13.812a71.137,71.137,0,0,1,3.455-25.853c2.834-8.556,7.532-16.053,12-23.747a.722.722,0,0,1,.111-.168c-.007-.024.018-.032.035-.065A73.145,73.145,0,0,0,232,115.465a.364.364,0,0,0,.046-.122,70.666,70.666,0,0,0,2.36-12.277c1.56-15.171,10.487-28.084,24.883-31.708,27.688-24.672,54.422-13.251,62.043,6.462.735,1.921,1.437,4.12,2.112,6.516l.019.074c2.521,8.86,4.678,20.329,6.721,29.2a.036.036,0,0,0,.012.05c-.018.031-.012.057.024.1l.007.026a83.471,83.471,0,0,0,2.922,10.265C339.519,140.1,354.848,149.529,356.505,193.293Z" transform="translate(-206.367 -57.296)" fill="#263238"/>
          <path id="Path_46" data-name="Path 46" d="M253.714,70.679C244.2,75.311,238.257,82.3,236.5,93.351c-1.026,6.444-1.632,12.745-4.283,18.782-2.737,6.23-6.939,11.286-11.252,16.335-6.854,8.022-11.7,16.062-13.034,26.922-1.352,11.032-1.182,24.095,2.262,34.512a.048.048,0,1,0,.092-.028c-2.736-10.542-2.414-25.027-.245-35.936,2.383-11.983,9.407-19.373,16.633-28.333A50.239,50.239,0,0,0,237.6,101.315c.851-5.465.928-11.173,3.278-16.28,2.8-6.1,8.166-9.877,13.473-13.217A.652.652,0,0,0,253.714,70.679Z" transform="translate(-207.138 -52.597)" fill="#263238"/>
          <path id="Path_47" data-name="Path 47" d="M318.683,134.451c-6.376-8.8-13.061-16.326-16.64-27.125-3.259-9.839-4.994-20.191-8.318-30.019a.124.124,0,1,0-.239.068c5.059,17.431,5.647,34.9,16.4,49.732,5.846,8.06,11.7,15.541,15.441,25.12a84.458,84.458,0,0,1,5.414,31.422c0,.382.49.373.534.008A69.877,69.877,0,0,0,318.683,134.451Z" transform="translate(-176.665 -50.266)" fill="#263238"/>
        </g>
        <g id="Group_38" data-name="Group 38" transform="translate(19.959)">
          <path id="Path_48" data-name="Path 48" d="M258.115,72.035c-.438,3.646-18.346,11.338-30.213,1.212-11.687-9.974-5.508-28.312,11.392-25.416C249.974,49.661,259.04,64.325,258.115,72.035Z" transform="translate(-221.89 -42.492)" fill="#263238"/>
          <path id="Path_49" data-name="Path 49" d="M222.451,57.665a21.488,21.488,0,0,1,10.127-9.944,12.968,12.968,0,0,1,12.934.813c3.928,2.456,6.769,6.483,8.919,10.756a40.062,40.062,0,0,1,2.554,6.8,19.867,19.867,0,0,1,.932,7.259,17.449,17.449,0,0,0,.384-7.524,32.363,32.363,0,0,0-1.91-7.388c-1.879-4.724-4.871-9.295-9.4-12.206a14.441,14.441,0,0,0-15.376-.409A18.974,18.974,0,0,0,222.451,57.665Z" transform="translate(-221.693 -43.805)" fill="#263238"/>
        </g>
      </g>
      <g id="Group_50" data-name="Group 50" transform="translate(104.975 140.858)">
        <g id="Group_43" data-name="Group 43" transform="translate(95.119 1.897)">
          <path id="Path_50" data-name="Path 50" d="M294.772,161.213c61.1,42.577,143.99,130.605,136.059,155.073-8.836,27.252-94.584-23.555-93.035-27.619,1.316-3.451-37.279-64.8-65.384-109.7C244.334,134.12,279.662,150.683,294.772,161.213Z" transform="translate(-260.341 -149.318)" fill="#f7a9a0"/>
          <g id="Group_42" data-name="Group 42">
            <path id="Path_51" data-name="Path 51" d="M369.764,211.99l-69.7,27.715s-28.467-47.591-37.828-75.324c-5.245-15.541,3.994-18.1,17.508-12.02C327.046,173.648,369.764,211.99,369.764,211.99Z" transform="translate(-260.745 -149.319)" fill="#455a64"/>
            <path id="Path_52" data-name="Path 52" d="M303.589,161.391a84.706,84.706,0,0,0-22.662-.2c-6.088.649-12.136,1.61-18.2,2.571-.162-.419-.311-.839-.46-1.258,6.142-.961,12.312-1.908,18.535-2.571a89.1,89.1,0,0,1,19.915-.162C301.681,160.309,302.642,160.85,303.589,161.391Zm17.467,10.729c-4.938,1.394-9.89,2.692-14.9,3.8-7.752,1.637-15.681,3.1-23.541,2.368a47.557,47.557,0,0,1-11.5-2.692c-1.488-.555-2.963-1.191-4.4-1.881.162.365.325.744.487,1.109,1.177.568,2.381,1.1,3.612,1.569a47.461,47.461,0,0,0,11.689,2.922,56.087,56.087,0,0,0,12.055-.257,108.649,108.649,0,0,0,11.825-2.1c5.276-1.218,10.5-2.652,15.681-4.181C321.732,172.567,321.394,172.337,321.056,172.12Zm32.295,23.2c-5.912,5.019-11.865,9.985-18.1,14.571-6.413,4.627-13.083,9.173-20.565,11.7a48.2,48.2,0,0,1-11.608,2.178,58.673,58.673,0,0,1-11-.446c.162.271.311.528.46.785a58.972,58.972,0,0,0,10.594.514,46.653,46.653,0,0,0,11.865-2.07,55,55,0,0,0,10.918-5.1,106.121,106.121,0,0,0,9.971-6.711c6.264-4.708,12.244-9.782,18.157-14.882C353.81,195.689,353.58,195.513,353.35,195.323Zm-2.138-1.678c-3.869.041-7.752.271-11.622.622a92.591,92.591,0,0,0-11.852,1.989c-7.874,1.772-15.221,5.317-22.148,9.268-5.939,3.423-11.689,7.13-17.412,10.851.23.392.433.758.636,1.136,5.764-3.721,11.486-7.482,17.412-10.878a82.809,82.809,0,0,1,21.782-9.241,92.382,92.382,0,0,1,11.689-2.1c3.951-.406,7.915-.69,11.892-.758.243,0,.487-.014.731-.014C351.957,194.241,351.592,193.957,351.213,193.646Z" transform="translate(-260.207 -145.805)" fill="#37474f"/>
            <path id="Path_53" data-name="Path 53" d="M360.429,215.7l-60.371,24S271.6,192.1,262.243,164.376c-3.366-9.945-.779-14.577,5.056-15.029Z" transform="translate(-260.744 -149.31)" fill="#37474f"/>
            <g id="Group_41" data-name="Group 41" transform="translate(37.325 54)">
              <g id="Group_40" data-name="Group 40">
                <path id="Path_54" data-name="Path 54" d="M288.4,213.676c10.369-5.151,38.9-18.311,58.56-24.441.118-.037.31.4.2.451-15.585,7.566-47.7,20.4-58.473,24.634C288.482,214.4,288.2,213.774,288.4,213.676Z" transform="translate(-288.333 -189.232)" fill="#263238"/>
              </g>
            </g>
          </g>
        </g>
        <g id="Group_45" data-name="Group 45">
          <path id="Path_55" data-name="Path 55" d="M368.268,367.342H190.44s7.213-138.493,67.477-207.121c16.258-18.515,41.821-14,54.838-.5,21.527,22.32,46.94,70.794,48.874,81.37,3.2,17.479-6.862,36.367-6.862,36.367Z" transform="translate(-190.44 -147.917)" fill="#455a64"/>
          <path id="Path_56" data-name="Path 56" d="M356.264,303.713c-4.614,1.38-9.268,2.665-13.962,3.788a139.914,139.914,0,0,1-23.677,3.788,96.2,96.2,0,0,1-12.014.041,55.379,55.379,0,0,1-11.8-2.327,92.9,92.9,0,0,1-21.62-10.255c-6.805-4.181-13.3-8.835-19.983-13.178-3.68-2.422-7.414-4.776-11.257-6.927-.5-.284-1.015-.568-1.529-.839-2.611-1.421-5.276-2.733-8.009-3.9a60.628,60.628,0,0,0-11.3-3.6,47.861,47.861,0,0,0-11.771-.906,49.742,49.742,0,0,0-6.481.879c.095-.379.189-.758.3-1.136a46.339,46.339,0,0,1,6.115-.758,47.108,47.108,0,0,1,12.014,1.082,62.312,62.312,0,0,1,11.405,3.788,92.934,92.934,0,0,1,8.524,4.289c.514.271,1,.555,1.5.852,3.666,2.124,7.238,4.424,10.742,6.778,6.616,4.465,13.151,9.051,19.97,13.151A92.463,92.463,0,0,0,295,308.354a54.523,54.523,0,0,0,11.662,2.165,94.345,94.345,0,0,0,11.892-.176,148.464,148.464,0,0,0,23.474-3.964c4.722-1.136,9.4-2.476,14.044-3.91Zm-.744-4.965c-2.341-1.407-4.641-2.882-6.914-4.384-6.684-4.343-13.178-9-19.983-13.178a93.8,93.8,0,0,0-21.634-10.255,55.423,55.423,0,0,0-11.784-2.327,96.187,96.187,0,0,0-12.014.041,140.28,140.28,0,0,0-23.69,3.788c-6.156,1.475-12.244,3.247-18.278,5.114-.271.081-.528.162-.8.257-1.312.406-2.638.812-3.951,1.231-7.617,2.408-15.153,4.979-22.838,7.008a98.2,98.2,0,0,1-15.126,2.922c-.095.433-.176.852-.271,1.272a98.209,98.209,0,0,0,15.721-2.963c9.457-2.53,18.7-5.7,27.992-8.632l.771-.244c5.642-1.772,11.311-3.45,17.061-4.83a146.694,146.694,0,0,1,23.474-3.978,96.761,96.761,0,0,1,11.879-.176A54.365,54.365,0,0,1,306.8,271.58a92.205,92.205,0,0,1,21.566,10.025c6.832,4.1,13.367,8.686,19.983,13.151,2.395,1.61,4.816,3.193,7.279,4.708ZM313.308,161.315c-3.315.041-6.629.284-9.9.622-9.741,1.042-19.361,2.746-28.994,4.221l-.812.122c-5.845.893-11.7,1.678-17.588,2.165-3.152.257-6.318.46-9.484.555-.284.379-.555.758-.825,1.136,3.477-.054,6.941-.257,10.4-.528,6.318-.514,12.6-1.326,18.847-2.246.284-.041.568-.081.839-.122,1.367-.2,2.733-.406,4.1-.622,7.888-1.2,15.735-2.584,23.636-3.423a104.22,104.22,0,0,1,10.851-.649C314.025,162.127,313.673,161.721,313.308,161.315ZM326.472,178.4c-7.022,1.434-14.165,2.557-21.255,1.894a47.557,47.557,0,0,1-11.5-2.692,59.866,59.866,0,0,1-10.621-5.3c-2.516-1.569-4.952-3.274-7.306-5.06-.46-.365-.92-.717-1.38-1.082-3.464-2.719-6.792-5.628-10.052-8.578-1.475-1.312-2.922-2.652-4.384-3.991-.108.081-.2.176-.311.257q2.171,2.05,4.37,4.086c3.112,2.868,6.264,5.7,9.565,8.348.447.379.893.731,1.353,1.082a95.387,95.387,0,0,0,7.779,5.547A62.272,62.272,0,0,0,293.42,178.4a47.46,47.46,0,0,0,11.689,2.922,56.087,56.087,0,0,0,12.055-.257q5.053-.609,9.985-1.691C326.932,179.052,326.7,178.728,326.472,178.4Zm23.257,39.046a58.884,58.884,0,0,1-12.447,6.156,48.205,48.205,0,0,1-11.608,2.178,59.96,59.96,0,0,1-11.852-.555c-2.949-.406-5.858-.988-8.74-1.678-.568-.135-1.136-.271-1.691-.406-4.275-1.1-8.483-2.408-12.664-3.788-7.59-2.449-15.058-5.263-22.716-7.536a92.832,92.832,0,0,0-23.555-4.289,55.672,55.672,0,0,0-11.987.8,78.262,78.262,0,0,0-9.633,2.557l-.487,1.136a80.406,80.406,0,0,1,10.269-2.882,53.273,53.273,0,0,1,11.825-.934,92.366,92.366,0,0,1,23.433,4.086c7.658,2.192,15.153,4.911,22.7,7.509,3.991,1.366,8.036,2.679,12.122,3.775.555.149,1.109.3,1.664.433a94.87,94.87,0,0,0,9.362,1.921,61.328,61.328,0,0,0,12,.7,46.653,46.653,0,0,0,11.865-2.07,55,55,0,0,0,10.918-5.1c.568-.338,1.15-.69,1.7-1.042Zm-8.835-16.195a103.523,103.523,0,0,0-12.7,6.278c-8.483,4.9-16.587,10.364-24.8,15.613-.23.135-.46.284-.69.433-4.979,3.166-10.012,6.264-15.207,9.092a147.4,147.4,0,0,1-21.647,9.917,97.214,97.214,0,0,1-11.432,3.261,54.942,54.942,0,0,1-11.825.934A92.759,92.759,0,0,1,219.17,242.7q-3.836-1.1-7.6-2.341c-.041.122-.095.257-.135.392,2.516.839,5.046,1.651,7.59,2.408a93.558,93.558,0,0,0,23.555,4.3,54.776,54.776,0,0,0,11.987-.812,94.682,94.682,0,0,0,11.595-3.166,139.124,139.124,0,0,0,21.891-9.8c5.574-3.017,10.972-6.3,16.317-9.674.244-.149.487-.3.717-.46,1.177-.731,2.341-1.475,3.5-2.219,6.724-4.289,13.34-8.74,20.24-12.691a100.86,100.86,0,0,1,12.7-6.3C341.314,201.985,341.111,201.62,340.895,201.254Zm19.144,127.623a83.234,83.234,0,0,0-17.615-2.652,55.614,55.614,0,0,0-11.987.8,96.486,96.486,0,0,0-11.595,3.166,139.814,139.814,0,0,0-21.891,9.8c-5.574,3.017-10.986,6.3-16.33,9.674-.23.162-.474.311-.717.46l-3.491,2.232c-6.724,4.289-13.354,8.727-20.24,12.691-.176.095-.352.2-.528.3h2.53c8-4.681,15.654-9.836,23.433-14.788l.69-.446c4.979-3.166,10.012-6.264,15.207-9.092a146.12,146.12,0,0,1,21.647-9.917,91.42,91.42,0,0,1,11.419-3.261A53.34,53.34,0,0,1,342.4,326.9a82.882,82.882,0,0,1,17.737,2.557Zm4.817,32.011c-.352.149-.7.271-1.055.392a94.68,94.68,0,0,1-11.432,3.261,48.565,48.565,0,0,1-6.1.8c-1.908.135-3.8.176-5.709.135-.92-.027-1.84-.068-2.76-.135a97.376,97.376,0,0,1-20.673-3.951c-7.658-2.192-15.153-4.925-22.7-7.522-4-1.367-8.036-2.665-12.122-3.761-.555-.149-1.123-.3-1.678-.446a95.406,95.406,0,0,0-9.349-1.921,63.566,63.566,0,0,0-12-.7,47.977,47.977,0,0,0-11.879,2.07,55.41,55.41,0,0,0-10.918,5.114,107.708,107.708,0,0,0-9.958,6.711q-2.882,2.151-5.682,4.411h1.61q2.314-1.806,4.695-3.558c6.426-4.641,13.083-9.173,20.578-11.7a47.451,47.451,0,0,1,11.595-2.178,59.91,59.91,0,0,1,11.852.541c2.936.419,5.845.988,8.74,1.678.568.135,1.136.284,1.7.433,4.262,1.069,8.483,2.381,12.664,3.761,7.577,2.462,15.058,5.276,22.716,7.549a111.4,111.4,0,0,0,15.018,3.477,71.545,71.545,0,0,0,8.524.812,54.779,54.779,0,0,0,11.987-.812,94.031,94.031,0,0,0,11.595-3.166c.3-.095.582-.2.879-.311Z" transform="translate(-187.687 -145.915)" fill="#37474f"/>
          <g id="Group_44" data-name="Group 44" transform="translate(89.605 117.141)">
            <path id="Path_57" data-name="Path 57" d="M271.865,234.5a165.327,165.327,0,0,1,24.112,4.182c3.924,1.042,7.773,2.258,11.616,3.562,1.916.651,3.841,1.233,5.78,1.808a26.058,26.058,0,0,0,6.21,1.228.146.146,0,0,1-.007.291,44.286,44.286,0,0,1-5.991-.164,42.91,42.91,0,0,1-5.7-1.127c-3.99-1.019-7.93-2.223-11.91-3.282-8.027-2.139-16.051-4.274-24.216-5.828C271.382,235.1,271.482,234.458,271.865,234.5Z" transform="translate(-251.428 -234.499)" fill="#263238"/>
            <path id="Path_58" data-name="Path 58" d="M256.944,239.912a178.462,178.462,0,0,1,20.179-.793c3.373.07,6.713.334,10.067.689q2.4.254,4.792.584c1.756.238,3.481.713,5.237.927.183.023.181.308-.008.292-1.663-.152-3.358-.028-5.028-.083s-3.355-.123-5.032-.179c-3.359-.111-6.717-.185-10.075-.329-6.724-.285-13.419-.5-20.148-.557C256.565,240.461,256.6,239.943,256.944,239.912Z" transform="translate(-256.669 -232.881)" fill="#263238"/>
          </g>
        </g>
        <g id="Group_49" data-name="Group 49" transform="translate(25.244 134.065)">
          <g id="Group_48" data-name="Group 48" transform="translate(0 0.982)">
            <path id="Path_59" data-name="Path 59" d="M429.863,280.992c-6.934,19.34-37.011,30.858-110.022,66.969-10.1,5-64.548-56.814-54.033-62.7,13.244-7.42,66.246-33.345,70.361-34.75C370.88,238.645,434.567,267.874,429.863,280.992Z" transform="translate(-189.556 -247.734)" fill="#f7a9a0"/>
            <g id="Group_47" data-name="Group 47" transform="translate(0 29.547)">
              <path id="Path_60" data-name="Path 60" d="M211.76,359.513c7.291,6.375,21.483-12.937,21.483-12.937s-1.077,6.6,2.606,11.871c4.218,6.033,15.528,2.065,15.528,2.065a22.034,22.034,0,0,0,4.745,12.082c4.618,5.368,16.6,2.99,16.6,2.99s3.844,6.149,10.863,8c19.944,5.251,55.089-35.06,62.681-48.663L301.83,269.573s-51.162,14.881-66.035,30.719C227.544,309.078,200.616,349.77,211.76,359.513Z" transform="translate(-209.098 -269.573)" fill="#f7a9a0"/>
              <g id="Group_46" data-name="Group 46" transform="translate(24.04 43.794)">
                <path id="Path_61" data-name="Path 61" d="M226.9,334.821c5.5-11.979,13.851-22.619,22.026-32.8a.226.226,0,0,1,.349.287c-8.246,10.028-14.011,22.5-21.841,32.837A.318.318,0,0,1,226.9,334.821Z" transform="translate(-226.867 -301.942)" fill="#263238"/>
                <path id="Path_62" data-name="Path 62" d="M239.981,343.356c1.325-2.672,3.527-4.9,5.492-7.111q3.172-3.57,6.464-7.031,6.585-6.935,13.509-13.534c.2-.195.553.07.349.287-4.366,4.615-8.663,9.295-12.831,14.09q-3.129,3.6-6.2,7.248c-1.906,2.262-3.73,4.807-6.106,6.6A.455.455,0,0,1,239.981,343.356Z" transform="translate(-222.254 -297.118)" fill="#263238"/>
                <path id="Path_63" data-name="Path 63" d="M256.26,354.329c1.058-2.368,3.485-4.317,5.286-6.137q3.066-3.1,6.1-6.228c4.04-4.172,8.078-8.349,11.971-12.662.195-.215.544.069.349.287-3.933,4.4-7.805,8.856-11.776,13.222q-2.926,3.217-5.887,6.4c-1.679,1.8-3.57,4.251-5.839,5.329C256.335,354.6,256.207,354.448,256.26,354.329Z" transform="translate(-216.497 -292.313)" fill="#263238"/>
              </g>
            </g>
          </g>
          <path id="Path_64" data-name="Path 64" d="M353.952,249.524c-6.064-1.753-22.767-5.16-36.415,1.089a.131.131,0,0,0,.08.249c11.731-3.468,30.264-2.315,36.281-1.1A.123.123,0,0,0,353.952,249.524Z" transform="translate(-170.855 -247.009)" fill="#263238"/>
        </g>
      </g>
      <g id="Group_72" data-name="Group 72" transform="translate(0 49.53)">
        <g id="Group_68" data-name="Group 68">
          <path id="Path_65" data-name="Path 65" d="M286.239,171.962c-2.511,28.723-41.185,158.664-101.76,178.478-20.567,6.728-51.007-74.143-43.562-168.887.221-2.806,63.99-17.184,69.257-2.537.567,1.574,5.446,43.738,3.61,43.306-2.28-.536,17.09-21.846,48.87-56.922C277.682,148.814,287.741,154.8,286.239,171.962Z" transform="translate(-103.349 -53.879)" fill="#f7a9a0"/>
          <path id="Path_66" data-name="Path 66" d="M193.673,202.517c2.493,21.59,4.563,43.241,6.041,64.925.411,6.044.882,12.083,1.319,18.125.015.211.359.18.365-.026a312.861,312.861,0,0,0-.52-32.607c-.709-10.744-1.67-21.6-3.432-32.226-1.015-6.111-2.123-12.2-3.374-18.272A.2.2,0,0,0,193.673,202.517Z" transform="translate(-84.324 -37.402)" fill="#263238"/>
          <g id="Group_67" data-name="Group 67">
            <g id="Group_52" data-name="Group 52" transform="translate(0 33.495)">
              <path id="Path_67" data-name="Path 67" d="M150.273,218.068c-5.145-6.772-25.987-39.873-29.726-50.381s-12.309-41.533-4.55-45.214,10.991,5.2,10.991,5.2-1.544-13.673,6.6-16.667S146.315,122,146.315,122s-.561-14.159,7.778-16.563S164.68,117.86,164.68,117.86s-1.116-12.921,6.587-12.01c9.268,1.095,8.636,25.146,13.634,36.439,1.135,2.564,26.708,50.338,26.708,50.338Z" transform="translate(-112.85 -105.171)" fill="#f7a9a0"/>
              <g id="Group_51" data-name="Group 51" transform="translate(14.051 10.748)">
                <path id="Path_68" data-name="Path 68" d="M151.483,113.789c-.422,17.69,2.453,25.5,11.4,40.448.175.292-.219.618-.43.329-10.09-13.839-15.11-23.118-11.821-40.841C150.789,112.858,151.5,112.947,151.483,113.789Z" transform="translate(-113.922 -113.115)" fill="#263238"/>
                <path id="Path_69" data-name="Path 69" d="M137.919,116.709c1.166,18.411,4.21,26.911,12.425,43.255.116.231-.264.452-.4.227-9.4-15.357-14.2-24.73-12.944-43.278C137.056,116.075,137.866,115.868,137.919,116.709Z" transform="translate(-118.446 -112.036)" fill="#263238"/>
                <path id="Path_70" data-name="Path 70" d="M123.767,122.61c2.416,17.743,5.351,27.208,15.364,42.05a.33.33,0,0,1-.524.4c-11.681-14.142-15.432-25.925-15.371-42.319C123.24,121.622,123.616,121.5,123.767,122.61Z" transform="translate(-123.235 -110.037)" fill="#263238"/>
              </g>
            </g>
            <g id="Group_65" data-name="Group 65" transform="translate(22.236)">
              <g id="Group_60" data-name="Group 60">
                <path id="Path_71" data-name="Path 71" d="M183,80.414H134.219a4.98,4.98,0,0,0-4.934,5.026V185.861a4.982,4.982,0,0,0,4.934,5.026H183a4.988,4.988,0,0,0,4.94-5.026V85.44A4.985,4.985,0,0,0,183,80.414Zm1.852,102.342a4.61,4.61,0,0,1-4.42,4.781H136.793a4.612,4.612,0,0,1-4.427-4.781V89.247c0-5.385,1.981-5.647,4.427-5.647h8.744c.507,0,.923.576.923,1.292V85.2c0,1.678.917,1.683,2.043,1.683h20.216c1.138,0,2.05-.005,2.05-1.683v-.308c0-.716.41-1.292.925-1.292h8.741c2.441,0,4.42.716,4.42,5.647Z" transform="translate(-129.285 -80.414)" fill="#37474f"/>
                <line id="Line_1" data-name="Line 1" x1="0.165" transform="translate(2.918 96.415)" fill="none"/>
                <g id="Group_59" data-name="Group 59" transform="translate(3.085 3.267)">
                  <path id="Path_72" data-name="Path 72" d="M184.053,88.476v93.51a4.611,4.611,0,0,1-4.42,4.781H135.99a4.611,4.611,0,0,1-4.425-4.781V88.476c0-5.383,1.979-5.647,4.425-5.647h8.744c.507,0,.923.578.923,1.293v.308c0,1.676.917,1.683,2.043,1.683h20.217c1.136,0,2.048-.007,2.048-1.683v-.308c0-.716.41-1.293.927-1.293h8.74C182.073,82.829,184.053,83.545,184.053,88.476Z" transform="translate(-131.565 -82.829)" fill="#5680e9"/>
                  <g id="Group_53" data-name="Group 53" transform="translate(0 17.579)">
                    <path id="Path_73" data-name="Path 73" d="M184.053,95.822V177.4a4.609,4.609,0,0,1-4.419,4.78H135.99a4.61,4.61,0,0,1-4.425-4.78V116.2c11.489-1.473,23.03,15.307,33.718,10.36,9.786-4.53,9.345-18.859,12.977-25.392A12.388,12.388,0,0,1,184.053,95.822Z" transform="translate(-131.565 -95.822)" fill="#fff" opacity="0.2"/>
                    <path id="Path_74" data-name="Path 74" d="M184.053,137.759v27.864a4.609,4.609,0,0,1-4.419,4.78H135.99a4.61,4.61,0,0,1-4.425-4.78V129.193c6.234,10.891,13.206,14.027,19.558,12.416,7.248-1.835,17.622-11.223,27.384-7.961A11.282,11.282,0,0,1,184.053,137.759Z" transform="translate(-131.565 -84.044)" fill="#fff" opacity="0.18"/>
                  </g>
                  <path id="Path_75" data-name="Path 75" d="M154.526,83.826h-5.513a.341.341,0,0,1-.341-.341h0a.34.34,0,0,1,.341-.34h5.513a.339.339,0,0,1,.341.34h0A.34.34,0,0,1,154.526,83.826Z" transform="translate(-125.527 -82.717)" fill="#263238"/>
                  <g id="Group_58" data-name="Group 58" transform="translate(3.42 1.625)">
                    <g id="Group_57" data-name="Group 57">
                      <g id="u5Zjqx" transform="translate(6.344)">
                        <g id="Group_54" data-name="Group 54">
                          <path id="Path_76" data-name="Path 76" d="M140.675,84.424l-.085.084-.047.049a1.15,1.15,0,0,0-1.629,0l-.045-.047-.084-.084h0v0l.007,0c.035-.032.07-.065.107-.095a1.266,1.266,0,0,1,.246-.157,1.282,1.282,0,0,1,.327-.111c.054-.009.11-.015.164-.022.019,0,.139,0,.143,0l.111.009a1.2,1.2,0,0,1,.3.072,1.258,1.258,0,0,1,.2.095,1.284,1.284,0,0,1,.195.135l.089.08Z" transform="translate(-138.782 -84.03)" fill="#263238"/>
                          <path id="Path_77" data-name="Path 77" d="M139.112,84.723l-.133-.133a.959.959,0,0,1,1.36,0l-.134.133a.772.772,0,0,0-1.093,0Z" transform="translate(-138.712 -83.932)" fill="#263238"/>
                          <path id="Path_78" data-name="Path 78" d="M140,84.758l-.133.133a.4.4,0,0,0-.56,0l-.133-.133A.58.58,0,0,1,140,84.758Z" transform="translate(-138.643 -83.834)" fill="#263238"/>
                        </g>
                        <path id="Path_79" data-name="Path 79" d="M139.632,84.931a.12.12,0,1,1-.239,0,.12.12,0,0,1,.239,0Z" transform="translate(-138.566 -83.754)" fill="#263238"/>
                      </g>
                      <g id="Group_55" data-name="Group 55" transform="translate(0 0.301)">
                        <path id="Path_80" data-name="Path 80" d="M134.093,84.6a.348.348,0,1,1,.348.348A.348.348,0,0,1,134.093,84.6Z" transform="translate(-134.093 -84.252)" fill="#263238"/>
                        <path id="Path_81" data-name="Path 81" d="M134.9,84.6a.348.348,0,1,1,.348.348A.348.348,0,0,1,134.9,84.6Z" transform="translate(-133.807 -84.252)" fill="#263238"/>
                        <circle id="Ellipse_34" data-name="Ellipse 34" cx="0.348" cy="0.348" r="0.348" transform="translate(2.191)" fill="#263238"/>
                        <circle id="Ellipse_35" data-name="Ellipse 35" cx="0.348" cy="0.348" r="0.348" transform="translate(3.287)" fill="#263238"/>
                        <circle id="Ellipse_36" data-name="Ellipse 36" cx="0.348" cy="0.348" r="0.348" transform="translate(4.383)" fill="#263238"/>
                      </g>
                      <g id="Group_56" data-name="Group 56" transform="translate(42.296 0.096)">
                        <path id="Path_82" data-name="Path 82" d="M168.187,85.413h-2.832V84.1h2.832Zm-2.687-.145h2.544V84.246H165.5Z" transform="translate(-165.355 -84.101)" fill="#263238"/>
                        <rect id="Rectangle_20" data-name="Rectangle 20" width="1.825" height="0.866" transform="translate(0.236 0.223)" fill="#263238"/>
                        <rect id="Rectangle_21" data-name="Rectangle 21" width="0.252" height="0.702" transform="translate(2.834 0.305)" fill="#263238"/>
                      </g>
                    </g>
                  </g>
                </g>
              </g>
              <g id="Group_64" data-name="Group 64" transform="translate(13.272 70)">
                <path id="Path_86" data-name="Path 86" d="M139.152,134.982a.27.27,0,0,1,.377-.037,1.691,1.691,0,0,0,.99.4,1.114,1.114,0,0,0,.647-.191.466.466,0,0,0,.223-.373.3.3,0,0,0-.046-.166.5.5,0,0,0-.156-.156,2.124,2.124,0,0,0-.71-.244h-.011a2.768,2.768,0,0,1-.667-.2,1.128,1.128,0,0,1-.483-.4.808.808,0,0,1-.119-.426.956.956,0,0,1,.414-.756,1.539,1.539,0,0,1,.9-.275,2.031,2.031,0,0,1,1.13.414.268.268,0,0,1,.073.368.262.262,0,0,1-.368.078,1.508,1.508,0,0,0-.835-.331.989.989,0,0,0-.58.176.414.414,0,0,0-.2.326.247.247,0,0,0,.037.146.51.51,0,0,0,.139.134,1.8,1.8,0,0,0,.648.229h.011a2.951,2.951,0,0,1,.714.218,1.193,1.193,0,0,1,.518.43.839.839,0,0,1,.124.44,1,1,0,0,1-.446.8,1.624,1.624,0,0,1-.958.295,2.242,2.242,0,0,1-1.327-.518A.277.277,0,0,1,139.152,134.982Z" transform="translate(-139.095 -132.153)" fill="#fff"/>
                <path id="Path_87" data-name="Path 87" d="M143.272,135.857a1.5,1.5,0,0,1-1.5-1.5v-1.845a.281.281,0,0,1,.284-.284.289.289,0,0,1,.291.284v1.845a.922.922,0,0,0,1.844,0v-1.845a.286.286,0,0,1,.291-.284.281.281,0,0,1,.284.284v1.845A1.5,1.5,0,0,1,143.272,135.857Z" transform="translate(-138.149 -132.126)" fill="#fff"/>
                <path id="Path_88" data-name="Path 88" d="M144.885,135.572v-3.058a.283.283,0,0,1,.284-.284h.736a.984.984,0,0,1,.787,1.575,1.11,1.11,0,0,1-.584,2.052h-.917l-.005-.005c-.011,0-.011.005-.016.005A.287.287,0,0,1,144.885,135.572Zm.575-1.937h.445a.416.416,0,0,0,.41-.419.407.407,0,0,0-.41-.41h-.445Zm0,1.647h.648a.536.536,0,0,0,0-1.072h-.648Z" transform="translate(-137.052 -132.126)" fill="#fff"/>
                <path id="Path_89" data-name="Path 89" d="M147.087,134.982a.271.271,0,0,1,.379-.037,1.683,1.683,0,0,0,.989.4,1.119,1.119,0,0,0,.648-.191.47.47,0,0,0,.223-.373.3.3,0,0,0-.047-.166.491.491,0,0,0-.154-.156,2.136,2.136,0,0,0-.71-.244H148.4a2.78,2.78,0,0,1-.668-.2,1.124,1.124,0,0,1-.482-.4.809.809,0,0,1-.119-.426.956.956,0,0,1,.414-.756,1.536,1.536,0,0,1,.9-.275,2.039,2.039,0,0,1,1.13.414.267.267,0,0,1,.072.368.262.262,0,0,1-.368.078,1.5,1.5,0,0,0-.833-.331.983.983,0,0,0-.58.176.412.412,0,0,0-.2.326.258.258,0,0,0,.036.146.51.51,0,0,0,.139.134,1.8,1.8,0,0,0,.648.229h.011a2.951,2.951,0,0,1,.714.218,1.185,1.185,0,0,1,.518.43.828.828,0,0,1,.126.44,1.007,1.007,0,0,1-.446.8,1.631,1.631,0,0,1-.959.295,2.237,2.237,0,0,1-1.326-.518A.276.276,0,0,1,147.087,134.982Z" transform="translate(-136.294 -132.153)" fill="#fff"/>
                <path id="Path_90" data-name="Path 90" d="M149.589,134.019a1.9,1.9,0,0,1,1.9-1.866,1.936,1.936,0,0,1,1.2.4.306.306,0,0,1,.051.414.3.3,0,0,1-.414.057,1.3,1.3,0,0,0-.835-.284,1.373,1.373,0,0,0-.932.372,1.278,1.278,0,0,0-.379.9,1.255,1.255,0,0,0,.379.9,1.368,1.368,0,0,0,.932.373,1.3,1.3,0,0,0,.835-.285.312.312,0,0,1,.414.058.305.305,0,0,1-.051.414,1.936,1.936,0,0,1-1.2.4A1.894,1.894,0,0,1,149.589,134.019Z" transform="translate(-135.391 -132.153)" fill="#fff"/>
                <path id="Path_91" data-name="Path 91" d="M155.074,135.427a.286.286,0,0,1-.181.363.447.447,0,0,1-.115.016h-.005a.367.367,0,0,1-.2-.058.489.489,0,0,1-.166-.181,1.382,1.382,0,0,1-.11-.621.438.438,0,0,0-.061-.223.479.479,0,0,0-.157-.15.969.969,0,0,0-.29-.124h-.612v1.124a.288.288,0,0,1-.291.285.284.284,0,0,1-.284-.285v-3.058a.281.281,0,0,1,.284-.284h.928a1.107,1.107,0,0,1,1.109,1.113,1.1,1.1,0,0,1-.4.85.821.821,0,0,1,.181.192.978.978,0,0,1,.17.56,1.311,1.311,0,0,0,.022.3A.284.284,0,0,1,155.074,135.427Zm-.725-2.084a.535.535,0,0,0-.534-.538h-.637v1.067h.637A.533.533,0,0,0,154.349,133.343Z" transform="translate(-134.328 -132.126)" fill="#fff"/>
                <path id="Path_92" data-name="Path 92" d="M155.073,132.514a.281.281,0,0,1,.285-.284.289.289,0,0,1,.29.284v3.058a.289.289,0,0,1-.29.285.281.281,0,0,1-.285-.285Z" transform="translate(-133.456 -132.126)" fill="#fff"/>
                <path id="Path_93" data-name="Path 93" d="M156.212,135.572v-3.058a.284.284,0,0,1,.285-.284h.736a.985.985,0,0,1,.787,1.575,1.111,1.111,0,0,1-.586,2.052h-.917l0-.005c-.011,0-.011.005-.016.005A.288.288,0,0,1,156.212,135.572Zm.575-1.937h.446a.416.416,0,0,0,.409-.419.407.407,0,0,0-.409-.41h-.446Zm0,1.647h.648a.536.536,0,0,0,0-1.072h-.648Z" transform="translate(-133.054 -132.126)" fill="#fff"/>
                <path id="Path_94" data-name="Path 94" d="M158.484,135.572v-3.058a.281.281,0,0,1,.285-.284h1.694a.287.287,0,0,1,.285.284.292.292,0,0,1-.285.291h-1.4v.947h1.208a.288.288,0,0,1,0,.576h-1.208v.952h1.4a.288.288,0,0,1,0,.576h-1.679c-.009,0-.009-.005-.009-.005l-.005.005A.285.285,0,0,1,158.484,135.572Z" transform="translate(-132.252 -132.126)" fill="#fff"/>
                <path id="Path_95" data-name="Path 95" d="M160.752,135.572v-3.058a.281.281,0,0,1,.284-.284h.612a1.814,1.814,0,0,1,0,3.627h-.612A.284.284,0,0,1,160.752,135.572Zm.575-.291h.321a1.238,1.238,0,0,0,0-2.476h-.321Z" transform="translate(-131.451 -132.126)" fill="#fff"/>
              </g>
              <path id="Icon_ionic-ios-checkmark-circle" data-name="Icon ionic-ios-checkmark-circle" d="M19.377,3.375a16,16,0,1,0,16,16A16,16,0,0,0,19.377,3.375Zm8.194,11.579L17.285,25.286h-.008a1.389,1.389,0,0,1-.892.423,1.347,1.347,0,0,1-.9-.439l-4.308-4.308a.307.307,0,0,1,0-.439l1.369-1.369a.3.3,0,0,1,.431,0l3.416,3.416,9.386-9.455a.3.3,0,0,1,.215-.092h0a.279.279,0,0,1,.215.092l1.346,1.393A.3.3,0,0,1,27.571,14.954Z" transform="translate(9.898 25.779)" fill="#fff"/>
            </g>
            <g id="Group_66" data-name="Group 66" transform="translate(58.034 53.869)">
              <path id="Path_96" data-name="Path 96" d="M204.726,192.1s.509-22.165-1.415-31.951-22.518-43.618-30.077-39.584c-9.76,5.206-1.72,27.079,3.619,37.278,0,0-22.589,12.024-20.214,28.971S204.726,192.1,204.726,192.1Z" transform="translate(-155.491 -120.23)" fill="#f7a9a0"/>
              <path id="Path_97" data-name="Path 97" d="M171.274,122.205c-5.475,11.17,2.4,24.1,6.835,34.384a1.024,1.024,0,0,1-.821,1.469c-9.131,5.672-20.36,16.333-20.956,27.662a.259.259,0,0,1-.518.018c-1.012-12.24,9.166-23.613,19.565-29.186-4.718-10.47-12.041-23.789-4.21-34.4A.06.06,0,0,1,171.274,122.205Z" transform="translate(-155.745 -119.563)" fill="#263238"/>
            </g>
          </g>
        </g>
        <g id="Group_71" data-name="Group 71" transform="translate(109.748 94.454)">
          <path id="Path_98" data-name="Path 98" d="M193.968,220.809l60.957,24.932s17.08-52.759,19.988-81.886c1.629-16.322-7.949-16.745-19.757-7.79C213.829,187.407,193.968,220.809,193.968,220.809Z" transform="translate(-193.968 -150.227)" fill="#455a64"/>
          <path id="Path_99" data-name="Path 99" d="M273.054,166.824c-.054.433-.108.866-.176,1.3-5.534.8-11.094,1.475-16.7,1.935a144.447,144.447,0,0,1-20.673.338c.352-.311.69-.622,1.042-.934a162.4,162.4,0,0,0,19.537-.568C261.771,168.42,267.413,167.676,273.054,166.824Zm-8.618-8.794c-2.1-1.881-4.167-3.788-6.237-5.709-.122.068-.244.135-.365.216,2.1,1.935,4.181,3.9,6.278,5.845,2.936,2.706,5.912,5.385,9.011,7.915.027-.244.068-.474.095-.7C270.213,163.184,267.3,160.627,264.436,158.029Zm-19.9,49.951a55.672,55.672,0,0,0-11.987.8,97.881,97.881,0,0,0-11.595,3.166,140.943,140.943,0,0,0-21.891,9.8c-.352.189-.7.379-1.042.582l1.394.568a1.612,1.612,0,0,1,.2-.122,147.393,147.393,0,0,1,21.647-9.917A92.27,92.27,0,0,1,232.7,209.59a53.273,53.273,0,0,1,11.825-.934,83.873,83.873,0,0,1,18.833,2.841c.041-.176.081-.338.135-.514A84.553,84.553,0,0,0,244.534,207.98Z" transform="translate(-192.538 -149.489)" fill="#37474f"/>
          <g id="Group_70" data-name="Group 70" transform="translate(7.536 59.797)">
            <g id="Group_69" data-name="Group 69">
              <path id="Path_100" data-name="Path 100" d="M254.669,216.088c-9.717-4.65-36.459-16.442-54.909-21.662-.11-.031-.295.4-.191.453,14.605,6.815,44.719,18.132,54.827,21.857C254.585,216.807,254.852,216.176,254.669,216.088Z" transform="translate(-199.538 -194.425)" fill="#263238"/>
            </g>
          </g>
          <path id="Path_101" data-name="Path 101" d="M257.558,182.179c-1.23,3.12-2.412,6.256-3.576,9.4.088-.388.188-.774.275-1.162,1-4.471,1.975-8.94,2.844-13.439.022-.107-.16-.15-.188-.045-4.087,15.559-15.085,54.79-15.965,59.122-.348-.087-6.288-2.473-7.079-2.6-.169-.027-.308.3-.149.333.4.092,8.084,3.357,8.13,3.248,3.133-7.448,9.958-36.183,11.443-42.549,1.645-4.02,3.105-8.105,4.35-12.273A.046.046,0,0,0,257.558,182.179Z" transform="translate(-179.962 -140.823)" fill="#263238"/>
        </g>
      </g>
      <g id="Group_87" data-name="Group 87" transform="translate(161.301 19.514)">
        <g id="Group_86" data-name="Group 86">
          <g id="Group_73" data-name="Group 73" transform="translate(25.6 75.258)">
            <path id="Path_102" data-name="Path 102" d="M252.674,167.37c1.085,3,18.167,21.276,32.184,18.951,4.565-.766,1.5-25.862,1.5-25.862l.2-1.9,2.738-26.658-32.821-15.972-4.715-2.07s-.269,7.344-.511,16.49c-.014.425-.027.848-.035,1.3-.027.517-.06,1.005-.062,1.488-.054,1.365-.1,2.761-.123,4.151-.019,1.059-.045,2.089-.023,3.2-.009,1.116.005,2.2,0,3.316C251.152,154.8,252.232,166.094,252.674,167.37Z" transform="translate(-250.994 -113.854)" fill="#f7a9a0"/>
            <path id="Path_103" data-name="Path 103" d="M251.18,130.344a53.75,53.75,0,0,0,35.309,28.21l2.738-26.658-32.821-15.972-4.715-2.07S251.422,121.2,251.18,130.344Z" transform="translate(-250.928 -113.854)" fill="#263238"/>
          </g>
          <g id="Group_85" data-name="Group 85">
            <path id="Path_104" data-name="Path 104" d="M324.187,107.1c11.492,45.608-14.528,57.641-24.365,60.107-8.931,2.24-39.622,8.731-55.764-35.446s1.43-63.936,21.584-70.139S312.7,61.488,324.187,107.1Z" transform="translate(-230.071 -57.749)" fill="#f7a9a0"/>
            <g id="Group_80" data-name="Group 80" transform="translate(47.089 36.349)">
              <path id="Path_105" data-name="Path 105" d="M292.724,89.558a30.6,30.6,0,0,1-3.248-.039c-1.246-.028-2.24.077-3.3-.671a1.673,1.673,0,0,1-.4-2.005c.786-1.376,2.322-1.72,3.823-1.747a6.1,6.1,0,0,1,4.171,1.371A1.784,1.784,0,0,1,292.724,89.558Z" transform="translate(-260.268 -85.095)" fill="#263238"/>
              <path id="Path_106" data-name="Path 106" d="M269.7,94.845a30.768,30.768,0,0,0,2.987-1.276c1.142-.5,2.1-.785,2.8-1.882a1.673,1.673,0,0,0-.4-2c-1.253-.973-2.8-.7-4.2-.157a6.094,6.094,0,0,0-3.332,2.859A1.784,1.784,0,0,0,269.7,94.845Z" transform="translate(-266.713 -83.704)" fill="#263238"/>
              <g id="Group_75" data-name="Group 75" transform="translate(0 18.891)">
                <g id="Group_74" data-name="Group 74" transform="translate(4.86)">
                  <path id="Path_107" data-name="Path 107" d="M275.757,101.038c-.051-.114-.212.2-.18.329.8,3.1,1.184,6.793-1.412,8.46-.081.053-.036.207.065.169C277.573,108.742,277.008,103.851,275.757,101.038Z" transform="translate(-269.18 -98.368)" fill="#263238"/>
                  <path id="Path_108" data-name="Path 108" d="M273.528,99.085c-5.113.739-3.261,10.909,1.476,10.226C279.666,108.637,277.814,98.467,273.528,99.085Z" transform="translate(-270.469 -99.058)" fill="#263238"/>
                </g>
                <path id="Path_109" data-name="Path 109" d="M272.9,99.768c-.785.737-1.469,1.912-2.521,2.213-1.218.348-2.347-.547-3.343-1.423-.1-.091-.176.014-.153.149.326,1.954,1.44,3.817,3.581,3.727,1.955-.083,3.009-2.058,3.139-4.1C273.626,99.951,273.212,99.472,272.9,99.768Z" transform="translate(-266.877 -98.84)" fill="#263238"/>
              </g>
              <g id="Group_77" data-name="Group 77" transform="translate(29.166 11.089)">
                <g id="Group_76" data-name="Group 76" transform="translate(0 1.35)">
                  <path id="Path_110" data-name="Path 110" d="M288.438,97.177c0-.124.273.107.291.237.449,3.173,1.5,6.73,4.535,7.28.093.018.112.177,0,.181C289.7,104.992,288.355,100.255,288.438,97.177Z" transform="translate(-288.434 -93.282)" fill="#263238"/>
                  <path id="Path_111" data-name="Path 111" d="M290.681,94.4c5.007-1.268,7.177,8.84,2.538,10.016C288.654,105.57,286.484,95.462,290.681,94.4Z" transform="translate(-288.434 -94.289)" fill="#263238"/>
                </g>
                <path id="Path_112" data-name="Path 112" d="M291.87,94.963c.913.365,1.912,1.169,2.88,1.027,1.12-.165,1.7-1.434,2.185-2.634.05-.123.149-.055.18.077.468,1.92.261,4.07-1.515,4.839-1.619.7-3.219-.69-4.093-2.515C291.345,95.419,291.5,94.817,291.87,94.963Z" transform="translate(-287.372 -93.291)" fill="#263238"/>
              </g>
              <path id="Path_113" data-name="Path 113" d="M278.938,119.471c.861.64,1.758,1.56,2.922,1.5a8.443,8.443,0,0,0,3.3-1.261.112.112,0,0,1,.16.145,4.315,4.315,0,0,1-3.8,2.269c-1.469-.055-2.349-1.2-2.875-2.468C278.578,119.478,278.812,119.378,278.938,119.471Z" transform="translate(-262.726 -72.975)" fill="#263238"/>
              <g id="Group_78" data-name="Group 78" transform="translate(18.048 1.27)">
                <path id="Path_114" data-name="Path 114" d="M290.651,116.551s1.569,4.591,2,6.816c.039.208-6.559,3.033-12.355-1.331-.216-.164.042-.472.272-.372,3.353,1.583,6.7,1.509,10.2.889.038-.647-2.949-7.773-2.6-7.867,1.2-.34,3.753.022,5.275.162-2.99-9.657-7.5-18.757-10.341-28.417a.309.309,0,0,1,.553-.257c5.408,9.2,9.093,20.24,12.439,30.134C296.521,117.538,291.616,116.757,290.651,116.551Z" transform="translate(-280.217 -86.033)" fill="#263238"/>
              </g>
              <g id="Group_79" data-name="Group 79" transform="translate(17.576 37.03)">
                <path id="Path_115" data-name="Path 115" d="M289.693,114.392a11.71,11.71,0,0,1-3.99,4.389,5.265,5.265,0,0,1-3.117.75c-2.385-.2-2.809-2.281-2.7-4.145a12.578,12.578,0,0,1,.54-2.92A15.165,15.165,0,0,0,289.693,114.392Z" transform="translate(-279.867 -112.465)" fill="#263238"/>
                <path id="Path_116" data-name="Path 116" d="M285.7,118.023a5.265,5.265,0,0,1-3.117.75c-2.385-.2-2.809-2.281-2.7-4.145C282.37,114.45,285.08,115.684,285.7,118.023Z" transform="translate(-279.867 -111.708)" fill="#ff9abb"/>
              </g>
            </g>
            <g id="Group_81" data-name="Group 81" transform="translate(4.537)">
              <path id="Path_117" data-name="Path 117" d="M292.458,68.359s1.955,6.985-.386,12.089c-4.814,10.489-17.41,7.947-21.635,12.132-3.961,3.924-2.431,11.9-6.014,15.82-4.959,5.427-11.849,3.461-12.624,7.073s-2.989,15.112-7.555,16.643-29.777-61.452,33.207-72.908c0,0,8.187-3.5,21.049,2.74s21.753,30.188,21.753,30.188a14.17,14.17,0,0,1-3.442-2.322c-2.936-2.507-4.09-4.852-6.238-6.471-3.373-2.545-5.187-1.533-8.691-4.009C296.542,75.563,292.458,68.359,292.458,68.359Z" transform="translate(-235.425 -58.228)" fill="#263238"/>
              <path id="Path_118" data-name="Path 118" d="M287.621,63.276a40.283,40.283,0,0,1,1.9,9.143c.285,3.055.176,6.266-1.141,8.936-1.331,2.6-4.018,4.4-6.8,5.46-2.838,1.095-5.979,1.444-9.028,2.719a9.373,9.373,0,0,0-3.975,3.082,12.521,12.521,0,0,0-1.691,4.637c-.589,3.086-1.191,6.128-3.2,8.354a10.379,10.379,0,0,1-7.989,3.5c-3.022.053-6.376-.743-9.3.632,3.032-1.132,6.132-.1,9.291.092a11.279,11.279,0,0,0,8.836-3.453c2.419-2.4,3.044-5.874,3.677-8.842a11.266,11.266,0,0,1,1.54-4.118,7.992,7.992,0,0,1,3.407-2.53c2.728-1.2,5.91-1.624,8.917-2.817a16.183,16.183,0,0,0,4.239-2.407,9.763,9.763,0,0,0,3.109-3.822,17.611,17.611,0,0,0,.831-9.513A40.675,40.675,0,0,0,287.621,63.276Z" transform="translate(-231.554 -56.447)" fill="#263238"/>
              <path id="Path_119" data-name="Path 119" d="M277.746,65.281a32.74,32.74,0,0,0,3.035,8.222,15.39,15.39,0,0,0,6.121,6.516,22.348,22.348,0,0,0,4.174,1.545,7.122,7.122,0,0,1,3.274,2.12,21.879,21.879,0,0,0,2.663,3.5,9.74,9.74,0,0,0,3.842,2.159,10.8,10.8,0,0,1-3.312-2.66,22.022,22.022,0,0,1-2.251-3.646,7.57,7.57,0,0,0-3.742-2.778,23.922,23.922,0,0,1-3.94-1.529,16.36,16.36,0,0,1-5.8-5.834A64.462,64.462,0,0,1,277.746,65.281Z" transform="translate(-220.488 -55.739)" fill="#263238"/>
            </g>
            <g id="Group_84" data-name="Group 84" transform="translate(0 64.918)">
              <g id="Group_82" data-name="Group 82" transform="translate(1.803)">
                <path id="Path_120" data-name="Path 120" d="M253.584,115.412s-12.476-12.854-18.468-8.177,5.025,24.453,13.21,26.078a7.952,7.952,0,0,0,9.837-5.92Z" transform="translate(-233.404 -106.211)" fill="#f7a9a0"/>
                <path id="Path_121" data-name="Path 121" d="M237.132,111.105a.108.108,0,0,0-.007.212c5.768,1.318,9.429,5.877,12.266,10.759-1.933-1.743-4.3-2.485-6.677-.137-.124.123.046.323.193.267a4.893,4.893,0,0,1,5.588.825,23.667,23.667,0,0,1,3.24,3.888c.332.444,1.164.042.889-.484-.02-.039-.043-.078-.064-.119C251.582,119.392,244.656,110.6,237.132,111.105Z" transform="translate(-232.122 -104.491)" fill="#263238"/>
              </g>
              <g id="Group_83" data-name="Group 83" transform="translate(13.216 20.335)">
                <path id="Path_122" data-name="Path 122" d="M248.519,124.634a1.908,1.908,0,1,1-2.063-1.74A1.909,1.909,0,0,1,248.519,124.634Z" transform="translate(-240.828 -120.66)" fill="#fff"/>
                <path id="Path_123" data-name="Path 123" d="M244.588,122.5a1.376,1.376,0,1,1-1.488-1.254A1.376,1.376,0,0,1,244.588,122.5Z" transform="translate(-241.84 -121.241)" fill="#fff"/>
              </g>
              <path id="Path_124" data-name="Path 124" d="M235.917,111.437l-2.841,0a1,1,0,0,1-1-1.007h0a1.007,1.007,0,0,1,1.008-1.005h2.837a1.009,1.009,0,0,1,1.007,1.007h0A1,1,0,0,1,235.917,111.437Z" transform="translate(-232.072 -105.077)" fill="#5680e9"/>
              <path id="Path_125" data-name="Path 125" d="M236.218,113.585l-2.775.6a1.006,1.006,0,0,1-1.2-.77h0a1,1,0,0,1,.771-1.2l2.775-.6a1,1,0,0,1,1.2.771h0A1.007,1.007,0,0,1,236.218,113.585Z" transform="translate(-232.018 -104.31)" fill="#5680e9"/>
            </g>
          </g>
        </g>
        <path id="Path_126" data-name="Path 126" d="M237.816,158.571c1.392-1.4,13.895-12.4,31.541-11.327,18.485,1.124,35.447,14.29,35.447,14.29s5.512,18.968-11.018,20.627C270.758,184.472,237.816,158.571,237.816,158.571Z" transform="translate(-230.045 -26.837)" fill="#f7a9a0"/>
      </g>
    </g>
    <g id="Group_90" data-name="Group 90" transform="translate(666.399 680.324)">
      <path id="Path_127" data-name="Path 127" d="M244.811,440.008V398.757c0-11.19,13.987-10.424,13.987,0v34.159h.354V418.4c0-9.4,12.608-9.476,12.608,0v14.518h.354V421.491c0-9.219,12.845-9.657,12.845.789v14.366h.394v-8.1c0-10.047,12.884-10.412,12.884.315V466.84c0,7.092-3.389,15.367-18.282,15.367H253.242c-6.855,0-11.938-17.967-15.367-24.94S227.593,443.909,223.1,437.29s2.836-13.121,9.928-7.8A90.812,90.812,0,0,1,244.811,440.008Z" transform="translate(-220.379 -389.295)" fill="#fff"/>
      <path id="Path_128" data-name="Path 128" d="M280.307,483.912H253.593c-6.167,0-10.477-10.787-13.941-19.455-.957-2.393-1.86-4.654-2.64-6.24-2-4.074-5.318-8.062-8.526-11.918-2.135-2.569-4.343-5.225-6.155-7.894-2.665-3.929-1.663-7.779.511-9.856,2.426-2.311,6.874-3.144,11.35.212a96.883,96.883,0,0,1,9.615,8.268V399.111a9.981,9.981,0,0,1,2.488-7.046,7.738,7.738,0,0,1,5.673-2.416c4.136,0,8.532,3.317,8.532,9.462v13.406a7.553,7.553,0,0,1,12.619,3.531,7.571,7.571,0,0,1,5.681-2.538,7.458,7.458,0,0,1,5.45,2.328,9.5,9.5,0,0,1,2.41,6.509c.024-.027.051-.055.078-.082a7.494,7.494,0,0,1,5.417-2.354c3.749,0,7.784,2.91,7.784,9.3v37.981C299.94,473.437,297.389,483.912,280.307,483.912Zm-52.247-54.67a4.81,4.81,0,0,0-3.349,1.265c-1.311,1.25-2.036,3.583-.141,6.376,1.739,2.562,3.9,5.166,6,7.683,3.309,3.98,6.73,8.095,8.874,12.455.825,1.68,1.748,3.988,2.723,6.431,2.825,7.07,7.094,17.753,11.428,17.753h26.714c13.989,0,16.927-7.62,16.927-14.012V429.212c0-4.557-2.549-6.6-5.078-6.6-2.456,0-5.1,1.966-5.1,6.28v9.454h-3.1v-15.72a6.977,6.977,0,0,0-1.667-4.926,4.765,4.765,0,0,0-3.489-1.49c-2.4,0-4.983,1.762-4.983,5.628v12.78h-3.06V418.751c0-3.955-2.476-5.724-4.931-5.724-2.393,0-4.971,1.791-4.971,5.724v15.873H257.8V399.111c0-4.435-2.932-6.757-5.826-6.757a5.065,5.065,0,0,0-3.711,1.572,7.357,7.357,0,0,0-1.744,5.185V443.88l-2.358-2.611a90.3,90.3,0,0,0-11.588-10.345A7.557,7.557,0,0,0,228.06,429.242Z" transform="translate(-220.73 -389.648)" fill="#263238"/>
    </g>
    <g id="Group_91" data-name="Group 91" transform="translate(676.333 666.595)">
      <path id="Path_129" data-name="Path 129" d="M247.863,389.338a14.039,14.039,0,0,1,1.17-5.275,13.864,13.864,0,0,1,2.907-4.554,13.862,13.862,0,0,1-1.17,5.274A14.044,14.044,0,0,1,247.863,389.338Z" transform="translate(-221.087 -379.498)" fill="#263238"/>
      <path id="Path_130" data-name="Path 130" d="M241.592,389.336a14.053,14.053,0,0,1-2.9-4.558,13.9,13.9,0,0,1-1.165-5.276,13.882,13.882,0,0,1,2.9,4.558A14.043,14.043,0,0,1,241.592,389.336Z" transform="translate(-224.736 -379.501)" fill="#263238"/>
      <path id="Path_131" data-name="Path 131" d="M237.908,393.015a15.522,15.522,0,0,1-9.829-4.078,13.873,13.873,0,0,1,5.275,1.17A14.04,14.04,0,0,1,237.908,393.015Z" transform="translate(-228.07 -376.171)" fill="#263238"/>
      <path id="Path_132" data-name="Path 132" d="M237.905,399.283a14.026,14.026,0,0,1-4.557,2.9,13.883,13.883,0,0,1-5.276,1.165,13.85,13.85,0,0,1,4.557-2.9A14.017,14.017,0,0,1,237.905,399.283Z" transform="translate(-228.072 -372.519)" fill="#263238"/>
      <path id="Path_133" data-name="Path 133" d="M253.041,399.293a15.511,15.511,0,0,1,9.828,4.076A13.862,13.862,0,0,1,257.6,402.2,14.025,14.025,0,0,1,253.041,399.293Z" transform="translate(-219.259 -372.516)" fill="#263238"/>
      <path id="Path_134" data-name="Path 134" d="M253.045,393.022a15.525,15.525,0,0,1,9.833-4.067,13.878,13.878,0,0,1-4.558,2.9A14.036,14.036,0,0,1,253.045,393.022Z" transform="translate(-219.258 -376.164)" fill="#263238"/>
    </g>
    <text id="Thank_You_For_Subscribe_" data-name="Thank You For Subscribe!" transform="translate(704.53 661.001)" fill="#fff" font-size="35" font-family="Quicksand-Bold, Quicksand" font-weight="700"><tspan x="-212.363" y="0">Thank You For Subscribe!</tspan></text>
  </g>
</svg>
